<?xml version="1.0" encoding="UTF-8" standalone="no"?>
<!-- This is a Stata 18.0 generated SVG file (http://www.stata.com) -->

<svg version="1.1" width="7.500in" height="4.500in" viewBox="0 0 5400 3240" xmlns="http://www.w3.org/2000/svg" xmlns:xlink="http://www.w3.org/1999/xlink">
	<desc>Stata Graph - Graph</desc>
	<rect x="0" y="0" width="5400" height="3240" style="fill:#FFFFFF;stroke:none"/>
	<rect x="0.00" y="0.00" width="5400.00" height="3240.00" style="fill:#FFFFFF"/>
	<rect x="3.24" y="3.24" width="5393.52" height="3233.52" style="fill:none;stroke:#FFFFFF;stroke-width:6.48"/>
	<rect x="412.43" y="309.82" width="4874.18" height="2456.83" style="fill:#FFFFFF"/>
	<rect x="415.67" y="313.06" width="4867.70" height="2450.35" style="fill:none;stroke:#FFFFFF;stroke-width:6.48"/>
	<line x1="412.43" y1="2695.28" x2="477.23" y2="2695.28" style="stroke:#F0F0F0;stroke-width:9.72"/>
	<line x1="509.63" y1="2695.28" x2="574.42" y2="2695.28" style="stroke:#F0F0F0;stroke-width:9.72"/>
	<line x1="606.83" y1="2695.28" x2="671.63" y2="2695.28" style="stroke:#F0F0F0;stroke-width:9.72"/>
	<line x1="704.03" y1="2695.28" x2="768.83" y2="2695.28" style="stroke:#F0F0F0;stroke-width:9.72"/>
	<line x1="801.23" y1="2695.28" x2="866.03" y2="2695.28" style="stroke:#F0F0F0;stroke-width:9.72"/>
	<line x1="898.43" y1="2695.28" x2="963.23" y2="2695.28" style="stroke:#F0F0F0;stroke-width:9.72"/>
	<line x1="995.63" y1="2695.28" x2="1060.43" y2="2695.28" style="stroke:#F0F0F0;stroke-width:9.72"/>
	<line x1="1092.83" y1="2695.28" x2="1157.63" y2="2695.28" style="stroke:#F0F0F0;stroke-width:9.72"/>
	<line x1="1190.03" y1="2695.28" x2="1254.83" y2="2695.28" style="stroke:#F0F0F0;stroke-width:9.72"/>
	<line x1="1287.22" y1="2695.28" x2="1352.03" y2="2695.28" style="stroke:#F0F0F0;stroke-width:9.72"/>
	<line x1="1384.43" y1="2695.28" x2="1449.23" y2="2695.28" style="stroke:#F0F0F0;stroke-width:9.72"/>
	<line x1="1481.63" y1="2695.28" x2="1546.43" y2="2695.28" style="stroke:#F0F0F0;stroke-width:9.72"/>
	<line x1="1578.83" y1="2695.28" x2="1643.63" y2="2695.28" style="stroke:#F0F0F0;stroke-width:9.72"/>
	<line x1="1676.03" y1="2695.28" x2="1740.83" y2="2695.28" style="stroke:#F0F0F0;stroke-width:9.72"/>
	<line x1="1773.23" y1="2695.28" x2="1838.03" y2="2695.28" style="stroke:#F0F0F0;stroke-width:9.72"/>
	<line x1="1870.43" y1="2695.28" x2="1935.23" y2="2695.28" style="stroke:#F0F0F0;stroke-width:9.72"/>
	<line x1="1967.63" y1="2695.28" x2="2032.43" y2="2695.28" style="stroke:#F0F0F0;stroke-width:9.72"/>
	<line x1="2064.82" y1="2695.28" x2="2129.63" y2="2695.28" style="stroke:#F0F0F0;stroke-width:9.72"/>
	<line x1="2162.03" y1="2695.28" x2="2226.82" y2="2695.28" style="stroke:#F0F0F0;stroke-width:9.72"/>
	<line x1="2259.23" y1="2695.28" x2="2324.03" y2="2695.28" style="stroke:#F0F0F0;stroke-width:9.72"/>
	<line x1="2356.43" y1="2695.28" x2="2421.23" y2="2695.28" style="stroke:#F0F0F0;stroke-width:9.72"/>
	<line x1="2453.63" y1="2695.28" x2="2518.43" y2="2695.28" style="stroke:#F0F0F0;stroke-width:9.72"/>
	<line x1="2550.82" y1="2695.28" x2="2615.63" y2="2695.28" style="stroke:#F0F0F0;stroke-width:9.72"/>
	<line x1="2648.03" y1="2695.28" x2="2712.83" y2="2695.28" style="stroke:#F0F0F0;stroke-width:9.72"/>
	<line x1="2745.23" y1="2695.28" x2="2810.03" y2="2695.28" style="stroke:#F0F0F0;stroke-width:9.72"/>
	<line x1="2842.43" y1="2695.28" x2="2907.23" y2="2695.28" style="stroke:#F0F0F0;stroke-width:9.72"/>
	<line x1="2939.63" y1="2695.28" x2="3004.43" y2="2695.28" style="stroke:#F0F0F0;stroke-width:9.72"/>
	<line x1="3036.83" y1="2695.28" x2="3101.63" y2="2695.28" style="stroke:#F0F0F0;stroke-width:9.72"/>
	<line x1="3134.03" y1="2695.28" x2="3198.83" y2="2695.28" style="stroke:#F0F0F0;stroke-width:9.72"/>
	<line x1="3231.23" y1="2695.28" x2="3296.03" y2="2695.28" style="stroke:#F0F0F0;stroke-width:9.72"/>
	<line x1="3328.43" y1="2695.28" x2="3393.23" y2="2695.28" style="stroke:#F0F0F0;stroke-width:9.72"/>
	<line x1="3425.63" y1="2695.28" x2="3490.43" y2="2695.28" style="stroke:#F0F0F0;stroke-width:9.72"/>
	<line x1="3522.83" y1="2695.28" x2="3587.63" y2="2695.28" style="stroke:#F0F0F0;stroke-width:9.72"/>
	<line x1="3620.03" y1="2695.28" x2="3684.83" y2="2695.28" style="stroke:#F0F0F0;stroke-width:9.72"/>
	<line x1="3717.23" y1="2695.28" x2="3782.03" y2="2695.28" style="stroke:#F0F0F0;stroke-width:9.72"/>
	<line x1="3814.43" y1="2695.28" x2="3879.23" y2="2695.28" style="stroke:#F0F0F0;stroke-width:9.72"/>
	<line x1="3911.63" y1="2695.28" x2="3976.43" y2="2695.28" style="stroke:#F0F0F0;stroke-width:9.72"/>
	<line x1="4008.83" y1="2695.28" x2="4073.63" y2="2695.28" style="stroke:#F0F0F0;stroke-width:9.72"/>
	<line x1="4106.02" y1="2695.28" x2="4170.83" y2="2695.28" style="stroke:#F0F0F0;stroke-width:9.72"/>
	<line x1="4203.23" y1="2695.28" x2="4268.02" y2="2695.28" style="stroke:#F0F0F0;stroke-width:9.72"/>
	<line x1="4300.43" y1="2695.28" x2="4365.23" y2="2695.28" style="stroke:#F0F0F0;stroke-width:9.72"/>
	<line x1="4397.63" y1="2695.28" x2="4462.43" y2="2695.28" style="stroke:#F0F0F0;stroke-width:9.72"/>
	<line x1="4494.83" y1="2695.28" x2="4559.63" y2="2695.28" style="stroke:#F0F0F0;stroke-width:9.72"/>
	<line x1="4592.02" y1="2695.28" x2="4656.83" y2="2695.28" style="stroke:#F0F0F0;stroke-width:9.72"/>
	<line x1="4689.23" y1="2695.28" x2="4754.02" y2="2695.28" style="stroke:#F0F0F0;stroke-width:9.72"/>
	<line x1="4786.43" y1="2695.28" x2="4851.23" y2="2695.28" style="stroke:#F0F0F0;stroke-width:9.72"/>
	<line x1="4883.63" y1="2695.28" x2="4948.43" y2="2695.28" style="stroke:#F0F0F0;stroke-width:9.72"/>
	<line x1="4980.83" y1="2695.28" x2="5045.63" y2="2695.28" style="stroke:#F0F0F0;stroke-width:9.72"/>
	<line x1="5078.02" y1="2695.28" x2="5142.83" y2="2695.28" style="stroke:#F0F0F0;stroke-width:9.72"/>
	<line x1="5175.23" y1="2695.28" x2="5240.02" y2="2695.28" style="stroke:#F0F0F0;stroke-width:9.72"/>
	<line x1="5272.43" y1="2695.28" x2="5286.60" y2="2695.28" style="stroke:#F0F0F0;stroke-width:9.72"/>
	<line x1="412.43" y1="2116.80" x2="477.23" y2="2116.80" style="stroke:#F0F0F0;stroke-width:9.72"/>
	<line x1="509.63" y1="2116.80" x2="574.42" y2="2116.80" style="stroke:#F0F0F0;stroke-width:9.72"/>
	<line x1="606.83" y1="2116.80" x2="671.63" y2="2116.80" style="stroke:#F0F0F0;stroke-width:9.72"/>
	<line x1="704.03" y1="2116.80" x2="768.83" y2="2116.80" style="stroke:#F0F0F0;stroke-width:9.72"/>
	<line x1="801.23" y1="2116.80" x2="866.03" y2="2116.80" style="stroke:#F0F0F0;stroke-width:9.72"/>
	<line x1="898.43" y1="2116.80" x2="963.23" y2="2116.80" style="stroke:#F0F0F0;stroke-width:9.72"/>
	<line x1="995.63" y1="2116.80" x2="1060.43" y2="2116.80" style="stroke:#F0F0F0;stroke-width:9.72"/>
	<line x1="1092.83" y1="2116.80" x2="1157.63" y2="2116.80" style="stroke:#F0F0F0;stroke-width:9.72"/>
	<line x1="1190.03" y1="2116.80" x2="1254.83" y2="2116.80" style="stroke:#F0F0F0;stroke-width:9.72"/>
	<line x1="1287.22" y1="2116.80" x2="1352.03" y2="2116.80" style="stroke:#F0F0F0;stroke-width:9.72"/>
	<line x1="1384.43" y1="2116.80" x2="1449.23" y2="2116.80" style="stroke:#F0F0F0;stroke-width:9.72"/>
	<line x1="1481.63" y1="2116.80" x2="1546.43" y2="2116.80" style="stroke:#F0F0F0;stroke-width:9.72"/>
	<line x1="1578.83" y1="2116.80" x2="1643.63" y2="2116.80" style="stroke:#F0F0F0;stroke-width:9.72"/>
	<line x1="1676.03" y1="2116.80" x2="1740.83" y2="2116.80" style="stroke:#F0F0F0;stroke-width:9.72"/>
	<line x1="1773.23" y1="2116.80" x2="1838.03" y2="2116.80" style="stroke:#F0F0F0;stroke-width:9.72"/>
	<line x1="1870.43" y1="2116.80" x2="1935.23" y2="2116.80" style="stroke:#F0F0F0;stroke-width:9.72"/>
	<line x1="1967.63" y1="2116.80" x2="2032.43" y2="2116.80" style="stroke:#F0F0F0;stroke-width:9.72"/>
	<line x1="2064.82" y1="2116.80" x2="2129.63" y2="2116.80" style="stroke:#F0F0F0;stroke-width:9.72"/>
	<line x1="2162.03" y1="2116.80" x2="2226.82" y2="2116.80" style="stroke:#F0F0F0;stroke-width:9.72"/>
	<line x1="2259.23" y1="2116.80" x2="2324.03" y2="2116.80" style="stroke:#F0F0F0;stroke-width:9.72"/>
	<line x1="2356.43" y1="2116.80" x2="2421.23" y2="2116.80" style="stroke:#F0F0F0;stroke-width:9.72"/>
	<line x1="2453.63" y1="2116.80" x2="2518.43" y2="2116.80" style="stroke:#F0F0F0;stroke-width:9.72"/>
	<line x1="2550.82" y1="2116.80" x2="2615.63" y2="2116.80" style="stroke:#F0F0F0;stroke-width:9.72"/>
	<line x1="2648.03" y1="2116.80" x2="2712.83" y2="2116.80" style="stroke:#F0F0F0;stroke-width:9.72"/>
	<line x1="2745.23" y1="2116.80" x2="2810.03" y2="2116.80" style="stroke:#F0F0F0;stroke-width:9.72"/>
	<line x1="2842.43" y1="2116.80" x2="2907.23" y2="2116.80" style="stroke:#F0F0F0;stroke-width:9.72"/>
	<line x1="2939.63" y1="2116.80" x2="3004.43" y2="2116.80" style="stroke:#F0F0F0;stroke-width:9.72"/>
	<line x1="3036.83" y1="2116.80" x2="3101.63" y2="2116.80" style="stroke:#F0F0F0;stroke-width:9.72"/>
	<line x1="3134.03" y1="2116.80" x2="3198.83" y2="2116.80" style="stroke:#F0F0F0;stroke-width:9.72"/>
	<line x1="3231.23" y1="2116.80" x2="3296.03" y2="2116.80" style="stroke:#F0F0F0;stroke-width:9.72"/>
	<line x1="3328.43" y1="2116.80" x2="3393.23" y2="2116.80" style="stroke:#F0F0F0;stroke-width:9.72"/>
	<line x1="3425.63" y1="2116.80" x2="3490.43" y2="2116.80" style="stroke:#F0F0F0;stroke-width:9.72"/>
	<line x1="3522.83" y1="2116.80" x2="3587.63" y2="2116.80" style="stroke:#F0F0F0;stroke-width:9.72"/>
	<line x1="3620.03" y1="2116.80" x2="3684.83" y2="2116.80" style="stroke:#F0F0F0;stroke-width:9.72"/>
	<line x1="3717.23" y1="2116.80" x2="3782.03" y2="2116.80" style="stroke:#F0F0F0;stroke-width:9.72"/>
	<line x1="3814.43" y1="2116.80" x2="3879.23" y2="2116.80" style="stroke:#F0F0F0;stroke-width:9.72"/>
	<line x1="3911.63" y1="2116.80" x2="3976.43" y2="2116.80" style="stroke:#F0F0F0;stroke-width:9.72"/>
	<line x1="4008.83" y1="2116.80" x2="4073.63" y2="2116.80" style="stroke:#F0F0F0;stroke-width:9.72"/>
	<line x1="4106.02" y1="2116.80" x2="4170.83" y2="2116.80" style="stroke:#F0F0F0;stroke-width:9.72"/>
	<line x1="4203.23" y1="2116.80" x2="4268.02" y2="2116.80" style="stroke:#F0F0F0;stroke-width:9.72"/>
	<line x1="4300.43" y1="2116.80" x2="4365.23" y2="2116.80" style="stroke:#F0F0F0;stroke-width:9.72"/>
	<line x1="4397.63" y1="2116.80" x2="4462.43" y2="2116.80" style="stroke:#F0F0F0;stroke-width:9.72"/>
	<line x1="4494.83" y1="2116.80" x2="4559.63" y2="2116.80" style="stroke:#F0F0F0;stroke-width:9.72"/>
	<line x1="4592.02" y1="2116.80" x2="4656.83" y2="2116.80" style="stroke:#F0F0F0;stroke-width:9.72"/>
	<line x1="4689.23" y1="2116.80" x2="4754.02" y2="2116.80" style="stroke:#F0F0F0;stroke-width:9.72"/>
	<line x1="4786.43" y1="2116.80" x2="4851.23" y2="2116.80" style="stroke:#F0F0F0;stroke-width:9.72"/>
	<line x1="4883.63" y1="2116.80" x2="4948.43" y2="2116.80" style="stroke:#F0F0F0;stroke-width:9.72"/>
	<line x1="4980.83" y1="2116.80" x2="5045.63" y2="2116.80" style="stroke:#F0F0F0;stroke-width:9.72"/>
	<line x1="5078.02" y1="2116.80" x2="5142.83" y2="2116.80" style="stroke:#F0F0F0;stroke-width:9.72"/>
	<line x1="5175.23" y1="2116.80" x2="5240.02" y2="2116.80" style="stroke:#F0F0F0;stroke-width:9.72"/>
	<line x1="5272.43" y1="2116.80" x2="5286.60" y2="2116.80" style="stroke:#F0F0F0;stroke-width:9.72"/>
	<line x1="412.43" y1="1538.16" x2="477.23" y2="1538.16" style="stroke:#F0F0F0;stroke-width:9.72"/>
	<line x1="509.63" y1="1538.16" x2="574.42" y2="1538.16" style="stroke:#F0F0F0;stroke-width:9.72"/>
	<line x1="606.83" y1="1538.16" x2="671.63" y2="1538.16" style="stroke:#F0F0F0;stroke-width:9.72"/>
	<line x1="704.03" y1="1538.16" x2="768.83" y2="1538.16" style="stroke:#F0F0F0;stroke-width:9.72"/>
	<line x1="801.23" y1="1538.16" x2="866.03" y2="1538.16" style="stroke:#F0F0F0;stroke-width:9.72"/>
	<line x1="898.43" y1="1538.16" x2="963.23" y2="1538.16" style="stroke:#F0F0F0;stroke-width:9.72"/>
	<line x1="995.63" y1="1538.16" x2="1060.43" y2="1538.16" style="stroke:#F0F0F0;stroke-width:9.72"/>
	<line x1="1092.83" y1="1538.16" x2="1157.63" y2="1538.16" style="stroke:#F0F0F0;stroke-width:9.72"/>
	<line x1="1190.03" y1="1538.16" x2="1254.83" y2="1538.16" style="stroke:#F0F0F0;stroke-width:9.72"/>
	<line x1="1287.22" y1="1538.16" x2="1352.03" y2="1538.16" style="stroke:#F0F0F0;stroke-width:9.72"/>
	<line x1="1384.43" y1="1538.16" x2="1449.23" y2="1538.16" style="stroke:#F0F0F0;stroke-width:9.72"/>
	<line x1="1481.63" y1="1538.16" x2="1546.43" y2="1538.16" style="stroke:#F0F0F0;stroke-width:9.72"/>
	<line x1="1578.83" y1="1538.16" x2="1643.63" y2="1538.16" style="stroke:#F0F0F0;stroke-width:9.72"/>
	<line x1="1676.03" y1="1538.16" x2="1740.83" y2="1538.16" style="stroke:#F0F0F0;stroke-width:9.72"/>
	<line x1="1773.23" y1="1538.16" x2="1838.03" y2="1538.16" style="stroke:#F0F0F0;stroke-width:9.72"/>
	<line x1="1870.43" y1="1538.16" x2="1935.23" y2="1538.16" style="stroke:#F0F0F0;stroke-width:9.72"/>
	<line x1="1967.63" y1="1538.16" x2="2032.43" y2="1538.16" style="stroke:#F0F0F0;stroke-width:9.72"/>
	<line x1="2064.82" y1="1538.16" x2="2129.63" y2="1538.16" style="stroke:#F0F0F0;stroke-width:9.72"/>
	<line x1="2162.03" y1="1538.16" x2="2226.82" y2="1538.16" style="stroke:#F0F0F0;stroke-width:9.72"/>
	<line x1="2259.23" y1="1538.16" x2="2324.03" y2="1538.16" style="stroke:#F0F0F0;stroke-width:9.72"/>
	<line x1="2356.43" y1="1538.16" x2="2421.23" y2="1538.16" style="stroke:#F0F0F0;stroke-width:9.72"/>
	<line x1="2453.63" y1="1538.16" x2="2518.43" y2="1538.16" style="stroke:#F0F0F0;stroke-width:9.72"/>
	<line x1="2550.82" y1="1538.16" x2="2615.63" y2="1538.16" style="stroke:#F0F0F0;stroke-width:9.72"/>
	<line x1="2648.03" y1="1538.16" x2="2712.83" y2="1538.16" style="stroke:#F0F0F0;stroke-width:9.72"/>
	<line x1="2745.23" y1="1538.16" x2="2810.03" y2="1538.16" style="stroke:#F0F0F0;stroke-width:9.72"/>
	<line x1="2842.43" y1="1538.16" x2="2907.23" y2="1538.16" style="stroke:#F0F0F0;stroke-width:9.72"/>
	<line x1="2939.63" y1="1538.16" x2="3004.43" y2="1538.16" style="stroke:#F0F0F0;stroke-width:9.72"/>
	<line x1="3036.83" y1="1538.16" x2="3101.63" y2="1538.16" style="stroke:#F0F0F0;stroke-width:9.72"/>
	<line x1="3134.03" y1="1538.16" x2="3198.83" y2="1538.16" style="stroke:#F0F0F0;stroke-width:9.72"/>
	<line x1="3231.23" y1="1538.16" x2="3296.03" y2="1538.16" style="stroke:#F0F0F0;stroke-width:9.72"/>
	<line x1="3328.43" y1="1538.16" x2="3393.23" y2="1538.16" style="stroke:#F0F0F0;stroke-width:9.72"/>
	<line x1="3425.63" y1="1538.16" x2="3490.43" y2="1538.16" style="stroke:#F0F0F0;stroke-width:9.72"/>
	<line x1="3522.83" y1="1538.16" x2="3587.63" y2="1538.16" style="stroke:#F0F0F0;stroke-width:9.72"/>
	<line x1="3620.03" y1="1538.16" x2="3684.83" y2="1538.16" style="stroke:#F0F0F0;stroke-width:9.72"/>
	<line x1="3717.23" y1="1538.16" x2="3782.03" y2="1538.16" style="stroke:#F0F0F0;stroke-width:9.72"/>
	<line x1="3814.43" y1="1538.16" x2="3879.23" y2="1538.16" style="stroke:#F0F0F0;stroke-width:9.72"/>
	<line x1="3911.63" y1="1538.16" x2="3976.43" y2="1538.16" style="stroke:#F0F0F0;stroke-width:9.72"/>
	<line x1="4008.83" y1="1538.16" x2="4073.63" y2="1538.16" style="stroke:#F0F0F0;stroke-width:9.72"/>
	<line x1="4106.02" y1="1538.16" x2="4170.83" y2="1538.16" style="stroke:#F0F0F0;stroke-width:9.72"/>
	<line x1="4203.23" y1="1538.16" x2="4268.02" y2="1538.16" style="stroke:#F0F0F0;stroke-width:9.72"/>
	<line x1="4300.43" y1="1538.16" x2="4365.23" y2="1538.16" style="stroke:#F0F0F0;stroke-width:9.72"/>
	<line x1="4397.63" y1="1538.16" x2="4462.43" y2="1538.16" style="stroke:#F0F0F0;stroke-width:9.72"/>
	<line x1="4494.83" y1="1538.16" x2="4559.63" y2="1538.16" style="stroke:#F0F0F0;stroke-width:9.72"/>
	<line x1="4592.02" y1="1538.16" x2="4656.83" y2="1538.16" style="stroke:#F0F0F0;stroke-width:9.72"/>
	<line x1="4689.23" y1="1538.16" x2="4754.02" y2="1538.16" style="stroke:#F0F0F0;stroke-width:9.72"/>
	<line x1="4786.43" y1="1538.16" x2="4851.23" y2="1538.16" style="stroke:#F0F0F0;stroke-width:9.72"/>
	<line x1="4883.63" y1="1538.16" x2="4948.43" y2="1538.16" style="stroke:#F0F0F0;stroke-width:9.72"/>
	<line x1="4980.83" y1="1538.16" x2="5045.63" y2="1538.16" style="stroke:#F0F0F0;stroke-width:9.72"/>
	<line x1="5078.02" y1="1538.16" x2="5142.83" y2="1538.16" style="stroke:#F0F0F0;stroke-width:9.72"/>
	<line x1="5175.23" y1="1538.16" x2="5240.02" y2="1538.16" style="stroke:#F0F0F0;stroke-width:9.72"/>
	<line x1="5272.43" y1="1538.16" x2="5286.60" y2="1538.16" style="stroke:#F0F0F0;stroke-width:9.72"/>
	<line x1="412.43" y1="959.68" x2="477.23" y2="959.68" style="stroke:#F0F0F0;stroke-width:9.72"/>
	<line x1="509.63" y1="959.68" x2="574.42" y2="959.68" style="stroke:#F0F0F0;stroke-width:9.72"/>
	<line x1="606.83" y1="959.68" x2="671.63" y2="959.68" style="stroke:#F0F0F0;stroke-width:9.72"/>
	<line x1="704.03" y1="959.68" x2="768.83" y2="959.68" style="stroke:#F0F0F0;stroke-width:9.72"/>
	<line x1="801.23" y1="959.68" x2="866.03" y2="959.68" style="stroke:#F0F0F0;stroke-width:9.72"/>
	<line x1="898.43" y1="959.68" x2="963.23" y2="959.68" style="stroke:#F0F0F0;stroke-width:9.72"/>
	<line x1="995.63" y1="959.68" x2="1060.43" y2="959.68" style="stroke:#F0F0F0;stroke-width:9.72"/>
	<line x1="1092.83" y1="959.68" x2="1157.63" y2="959.68" style="stroke:#F0F0F0;stroke-width:9.72"/>
	<line x1="1190.03" y1="959.68" x2="1254.83" y2="959.68" style="stroke:#F0F0F0;stroke-width:9.72"/>
	<line x1="1287.22" y1="959.68" x2="1352.03" y2="959.68" style="stroke:#F0F0F0;stroke-width:9.72"/>
	<line x1="1384.43" y1="959.68" x2="1449.23" y2="959.68" style="stroke:#F0F0F0;stroke-width:9.72"/>
	<line x1="1481.63" y1="959.68" x2="1546.43" y2="959.68" style="stroke:#F0F0F0;stroke-width:9.72"/>
	<line x1="1578.83" y1="959.68" x2="1643.63" y2="959.68" style="stroke:#F0F0F0;stroke-width:9.72"/>
	<line x1="1676.03" y1="959.68" x2="1740.83" y2="959.68" style="stroke:#F0F0F0;stroke-width:9.72"/>
	<line x1="1773.23" y1="959.68" x2="1838.03" y2="959.68" style="stroke:#F0F0F0;stroke-width:9.72"/>
	<line x1="1870.43" y1="959.68" x2="1935.23" y2="959.68" style="stroke:#F0F0F0;stroke-width:9.72"/>
	<line x1="1967.63" y1="959.68" x2="2032.43" y2="959.68" style="stroke:#F0F0F0;stroke-width:9.72"/>
	<line x1="2064.82" y1="959.68" x2="2129.63" y2="959.68" style="stroke:#F0F0F0;stroke-width:9.72"/>
	<line x1="2162.03" y1="959.68" x2="2226.82" y2="959.68" style="stroke:#F0F0F0;stroke-width:9.72"/>
	<line x1="2259.23" y1="959.68" x2="2324.03" y2="959.68" style="stroke:#F0F0F0;stroke-width:9.72"/>
	<line x1="2356.43" y1="959.68" x2="2421.23" y2="959.68" style="stroke:#F0F0F0;stroke-width:9.72"/>
	<line x1="2453.63" y1="959.68" x2="2518.43" y2="959.68" style="stroke:#F0F0F0;stroke-width:9.72"/>
	<line x1="2550.82" y1="959.68" x2="2615.63" y2="959.68" style="stroke:#F0F0F0;stroke-width:9.72"/>
	<line x1="2648.03" y1="959.68" x2="2712.83" y2="959.68" style="stroke:#F0F0F0;stroke-width:9.72"/>
	<line x1="2745.23" y1="959.68" x2="2810.03" y2="959.68" style="stroke:#F0F0F0;stroke-width:9.72"/>
	<line x1="2842.43" y1="959.68" x2="2907.23" y2="959.68" style="stroke:#F0F0F0;stroke-width:9.72"/>
	<line x1="2939.63" y1="959.68" x2="3004.43" y2="959.68" style="stroke:#F0F0F0;stroke-width:9.72"/>
	<line x1="3036.83" y1="959.68" x2="3101.63" y2="959.68" style="stroke:#F0F0F0;stroke-width:9.72"/>
	<line x1="3134.03" y1="959.68" x2="3198.83" y2="959.68" style="stroke:#F0F0F0;stroke-width:9.72"/>
	<line x1="3231.23" y1="959.68" x2="3296.03" y2="959.68" style="stroke:#F0F0F0;stroke-width:9.72"/>
	<line x1="3328.43" y1="959.68" x2="3393.23" y2="959.68" style="stroke:#F0F0F0;stroke-width:9.72"/>
	<line x1="3425.63" y1="959.68" x2="3490.43" y2="959.68" style="stroke:#F0F0F0;stroke-width:9.72"/>
	<line x1="3522.83" y1="959.68" x2="3587.63" y2="959.68" style="stroke:#F0F0F0;stroke-width:9.72"/>
	<line x1="3620.03" y1="959.68" x2="3684.83" y2="959.68" style="stroke:#F0F0F0;stroke-width:9.72"/>
	<line x1="3717.23" y1="959.68" x2="3782.03" y2="959.68" style="stroke:#F0F0F0;stroke-width:9.72"/>
	<line x1="3814.43" y1="959.68" x2="3879.23" y2="959.68" style="stroke:#F0F0F0;stroke-width:9.72"/>
	<line x1="3911.63" y1="959.68" x2="3976.43" y2="959.68" style="stroke:#F0F0F0;stroke-width:9.72"/>
	<line x1="4008.83" y1="959.68" x2="4073.63" y2="959.68" style="stroke:#F0F0F0;stroke-width:9.72"/>
	<line x1="4106.02" y1="959.68" x2="4170.83" y2="959.68" style="stroke:#F0F0F0;stroke-width:9.72"/>
	<line x1="4203.23" y1="959.68" x2="4268.02" y2="959.68" style="stroke:#F0F0F0;stroke-width:9.72"/>
	<line x1="4300.43" y1="959.68" x2="4365.23" y2="959.68" style="stroke:#F0F0F0;stroke-width:9.72"/>
	<line x1="4397.63" y1="959.68" x2="4462.43" y2="959.68" style="stroke:#F0F0F0;stroke-width:9.72"/>
	<line x1="4494.83" y1="959.68" x2="4559.63" y2="959.68" style="stroke:#F0F0F0;stroke-width:9.72"/>
	<line x1="4592.02" y1="959.68" x2="4656.83" y2="959.68" style="stroke:#F0F0F0;stroke-width:9.72"/>
	<line x1="4689.23" y1="959.68" x2="4754.02" y2="959.68" style="stroke:#F0F0F0;stroke-width:9.72"/>
	<line x1="4786.43" y1="959.68" x2="4851.23" y2="959.68" style="stroke:#F0F0F0;stroke-width:9.72"/>
	<line x1="4883.63" y1="959.68" x2="4948.43" y2="959.68" style="stroke:#F0F0F0;stroke-width:9.72"/>
	<line x1="4980.83" y1="959.68" x2="5045.63" y2="959.68" style="stroke:#F0F0F0;stroke-width:9.72"/>
	<line x1="5078.02" y1="959.68" x2="5142.83" y2="959.68" style="stroke:#F0F0F0;stroke-width:9.72"/>
	<line x1="5175.23" y1="959.68" x2="5240.02" y2="959.68" style="stroke:#F0F0F0;stroke-width:9.72"/>
	<line x1="5272.43" y1="959.68" x2="5286.60" y2="959.68" style="stroke:#F0F0F0;stroke-width:9.72"/>
	<line x1="412.43" y1="381.04" x2="477.23" y2="381.04" style="stroke:#F0F0F0;stroke-width:9.72"/>
	<line x1="509.63" y1="381.04" x2="574.42" y2="381.04" style="stroke:#F0F0F0;stroke-width:9.72"/>
	<line x1="606.83" y1="381.04" x2="671.63" y2="381.04" style="stroke:#F0F0F0;stroke-width:9.72"/>
	<line x1="704.03" y1="381.04" x2="768.83" y2="381.04" style="stroke:#F0F0F0;stroke-width:9.72"/>
	<line x1="801.23" y1="381.04" x2="866.03" y2="381.04" style="stroke:#F0F0F0;stroke-width:9.72"/>
	<line x1="898.43" y1="381.04" x2="963.23" y2="381.04" style="stroke:#F0F0F0;stroke-width:9.72"/>
	<line x1="995.63" y1="381.04" x2="1060.43" y2="381.04" style="stroke:#F0F0F0;stroke-width:9.72"/>
	<line x1="1092.83" y1="381.04" x2="1157.63" y2="381.04" style="stroke:#F0F0F0;stroke-width:9.72"/>
	<line x1="1190.03" y1="381.04" x2="1254.83" y2="381.04" style="stroke:#F0F0F0;stroke-width:9.72"/>
	<line x1="1287.22" y1="381.04" x2="1352.03" y2="381.04" style="stroke:#F0F0F0;stroke-width:9.72"/>
	<line x1="1384.43" y1="381.04" x2="1449.23" y2="381.04" style="stroke:#F0F0F0;stroke-width:9.72"/>
	<line x1="1481.63" y1="381.04" x2="1546.43" y2="381.04" style="stroke:#F0F0F0;stroke-width:9.72"/>
	<line x1="1578.83" y1="381.04" x2="1643.63" y2="381.04" style="stroke:#F0F0F0;stroke-width:9.72"/>
	<line x1="1676.03" y1="381.04" x2="1740.83" y2="381.04" style="stroke:#F0F0F0;stroke-width:9.72"/>
	<line x1="1773.23" y1="381.04" x2="1838.03" y2="381.04" style="stroke:#F0F0F0;stroke-width:9.72"/>
	<line x1="1870.43" y1="381.04" x2="1935.23" y2="381.04" style="stroke:#F0F0F0;stroke-width:9.72"/>
	<line x1="1967.63" y1="381.04" x2="2032.43" y2="381.04" style="stroke:#F0F0F0;stroke-width:9.72"/>
	<line x1="2064.82" y1="381.04" x2="2129.63" y2="381.04" style="stroke:#F0F0F0;stroke-width:9.72"/>
	<line x1="2162.03" y1="381.04" x2="2226.82" y2="381.04" style="stroke:#F0F0F0;stroke-width:9.72"/>
	<line x1="2259.23" y1="381.04" x2="2324.03" y2="381.04" style="stroke:#F0F0F0;stroke-width:9.72"/>
	<line x1="2356.43" y1="381.04" x2="2421.23" y2="381.04" style="stroke:#F0F0F0;stroke-width:9.72"/>
	<line x1="2453.63" y1="381.04" x2="2518.43" y2="381.04" style="stroke:#F0F0F0;stroke-width:9.72"/>
	<line x1="2550.82" y1="381.04" x2="2615.63" y2="381.04" style="stroke:#F0F0F0;stroke-width:9.72"/>
	<line x1="2648.03" y1="381.04" x2="2712.83" y2="381.04" style="stroke:#F0F0F0;stroke-width:9.72"/>
	<line x1="2745.23" y1="381.04" x2="2810.03" y2="381.04" style="stroke:#F0F0F0;stroke-width:9.72"/>
	<line x1="2842.43" y1="381.04" x2="2907.23" y2="381.04" style="stroke:#F0F0F0;stroke-width:9.72"/>
	<line x1="2939.63" y1="381.04" x2="3004.43" y2="381.04" style="stroke:#F0F0F0;stroke-width:9.72"/>
	<line x1="3036.83" y1="381.04" x2="3101.63" y2="381.04" style="stroke:#F0F0F0;stroke-width:9.72"/>
	<line x1="3134.03" y1="381.04" x2="3198.83" y2="381.04" style="stroke:#F0F0F0;stroke-width:9.72"/>
	<line x1="3231.23" y1="381.04" x2="3296.03" y2="381.04" style="stroke:#F0F0F0;stroke-width:9.72"/>
	<line x1="3328.43" y1="381.04" x2="3393.23" y2="381.04" style="stroke:#F0F0F0;stroke-width:9.72"/>
	<line x1="3425.63" y1="381.04" x2="3490.43" y2="381.04" style="stroke:#F0F0F0;stroke-width:9.72"/>
	<line x1="3522.83" y1="381.04" x2="3587.63" y2="381.04" style="stroke:#F0F0F0;stroke-width:9.72"/>
	<line x1="3620.03" y1="381.04" x2="3684.83" y2="381.04" style="stroke:#F0F0F0;stroke-width:9.72"/>
	<line x1="3717.23" y1="381.04" x2="3782.03" y2="381.04" style="stroke:#F0F0F0;stroke-width:9.72"/>
	<line x1="3814.43" y1="381.04" x2="3879.23" y2="381.04" style="stroke:#F0F0F0;stroke-width:9.72"/>
	<line x1="3911.63" y1="381.04" x2="3976.43" y2="381.04" style="stroke:#F0F0F0;stroke-width:9.72"/>
	<line x1="4008.83" y1="381.04" x2="4073.63" y2="381.04" style="stroke:#F0F0F0;stroke-width:9.72"/>
	<line x1="4106.02" y1="381.04" x2="4170.83" y2="381.04" style="stroke:#F0F0F0;stroke-width:9.72"/>
	<line x1="4203.23" y1="381.04" x2="4268.02" y2="381.04" style="stroke:#F0F0F0;stroke-width:9.72"/>
	<line x1="4300.43" y1="381.04" x2="4365.23" y2="381.04" style="stroke:#F0F0F0;stroke-width:9.72"/>
	<line x1="4397.63" y1="381.04" x2="4462.43" y2="381.04" style="stroke:#F0F0F0;stroke-width:9.72"/>
	<line x1="4494.83" y1="381.04" x2="4559.63" y2="381.04" style="stroke:#F0F0F0;stroke-width:9.72"/>
	<line x1="4592.02" y1="381.04" x2="4656.83" y2="381.04" style="stroke:#F0F0F0;stroke-width:9.72"/>
	<line x1="4689.23" y1="381.04" x2="4754.02" y2="381.04" style="stroke:#F0F0F0;stroke-width:9.72"/>
	<line x1="4786.43" y1="381.04" x2="4851.23" y2="381.04" style="stroke:#F0F0F0;stroke-width:9.72"/>
	<line x1="4883.63" y1="381.04" x2="4948.43" y2="381.04" style="stroke:#F0F0F0;stroke-width:9.72"/>
	<line x1="4980.83" y1="381.04" x2="5045.63" y2="381.04" style="stroke:#F0F0F0;stroke-width:9.72"/>
	<line x1="5078.02" y1="381.04" x2="5142.83" y2="381.04" style="stroke:#F0F0F0;stroke-width:9.72"/>
	<line x1="5175.23" y1="381.04" x2="5240.02" y2="381.04" style="stroke:#F0F0F0;stroke-width:9.72"/>
	<line x1="5272.43" y1="381.04" x2="5286.60" y2="381.04" style="stroke:#F0F0F0;stroke-width:9.72"/>
	<line x1="483.81" y1="2766.66" x2="483.81" y2="2701.86" style="stroke:#F0F0F0;stroke-width:9.72"/>
	<line x1="483.81" y1="2669.46" x2="483.81" y2="2604.66" style="stroke:#F0F0F0;stroke-width:9.72"/>
	<line x1="483.81" y1="2572.26" x2="483.81" y2="2507.46" style="stroke:#F0F0F0;stroke-width:9.72"/>
	<line x1="483.81" y1="2475.06" x2="483.81" y2="2410.26" style="stroke:#F0F0F0;stroke-width:9.72"/>
	<line x1="483.81" y1="2377.86" x2="483.81" y2="2313.06" style="stroke:#F0F0F0;stroke-width:9.72"/>
	<line x1="483.81" y1="2280.66" x2="483.81" y2="2215.86" style="stroke:#F0F0F0;stroke-width:9.72"/>
	<line x1="483.81" y1="2183.46" x2="483.81" y2="2118.66" style="stroke:#F0F0F0;stroke-width:9.72"/>
	<line x1="483.81" y1="2086.26" x2="483.81" y2="2021.46" style="stroke:#F0F0F0;stroke-width:9.72"/>
	<line x1="483.81" y1="1989.06" x2="483.81" y2="1924.26" style="stroke:#F0F0F0;stroke-width:9.72"/>
	<line x1="483.81" y1="1891.86" x2="483.81" y2="1827.06" style="stroke:#F0F0F0;stroke-width:9.72"/>
	<line x1="483.81" y1="1794.66" x2="483.81" y2="1729.86" style="stroke:#F0F0F0;stroke-width:9.72"/>
	<line x1="483.81" y1="1697.46" x2="483.81" y2="1632.66" style="stroke:#F0F0F0;stroke-width:9.72"/>
	<line x1="483.81" y1="1600.26" x2="483.81" y2="1535.46" style="stroke:#F0F0F0;stroke-width:9.72"/>
	<line x1="483.81" y1="1503.06" x2="483.81" y2="1438.26" style="stroke:#F0F0F0;stroke-width:9.72"/>
	<line x1="483.81" y1="1405.86" x2="483.81" y2="1341.06" style="stroke:#F0F0F0;stroke-width:9.72"/>
	<line x1="483.81" y1="1308.66" x2="483.81" y2="1243.86" style="stroke:#F0F0F0;stroke-width:9.72"/>
	<line x1="483.81" y1="1211.46" x2="483.81" y2="1146.66" style="stroke:#F0F0F0;stroke-width:9.72"/>
	<line x1="483.81" y1="1114.26" x2="483.81" y2="1049.46" style="stroke:#F0F0F0;stroke-width:9.72"/>
	<line x1="483.81" y1="1017.06" x2="483.81" y2="952.26" style="stroke:#F0F0F0;stroke-width:9.72"/>
	<line x1="483.81" y1="919.86" x2="483.81" y2="855.06" style="stroke:#F0F0F0;stroke-width:9.72"/>
	<line x1="483.81" y1="822.66" x2="483.81" y2="757.86" style="stroke:#F0F0F0;stroke-width:9.72"/>
	<line x1="483.81" y1="725.46" x2="483.81" y2="660.66" style="stroke:#F0F0F0;stroke-width:9.72"/>
	<line x1="483.81" y1="628.26" x2="483.81" y2="563.46" style="stroke:#F0F0F0;stroke-width:9.72"/>
	<line x1="483.81" y1="531.06" x2="483.81" y2="466.26" style="stroke:#F0F0F0;stroke-width:9.72"/>
	<line x1="483.81" y1="433.86" x2="483.81" y2="369.06" style="stroke:#F0F0F0;stroke-width:9.72"/>
	<line x1="483.81" y1="336.66" x2="483.81" y2="309.82" style="stroke:#F0F0F0;stroke-width:9.72"/>
	<line x1="1666.58" y1="2766.66" x2="1666.58" y2="2701.86" style="stroke:#F0F0F0;stroke-width:9.72"/>
	<line x1="1666.58" y1="2669.46" x2="1666.58" y2="2604.66" style="stroke:#F0F0F0;stroke-width:9.72"/>
	<line x1="1666.58" y1="2572.26" x2="1666.58" y2="2507.46" style="stroke:#F0F0F0;stroke-width:9.72"/>
	<line x1="1666.58" y1="2475.06" x2="1666.58" y2="2410.26" style="stroke:#F0F0F0;stroke-width:9.72"/>
	<line x1="1666.58" y1="2377.86" x2="1666.58" y2="2313.06" style="stroke:#F0F0F0;stroke-width:9.72"/>
	<line x1="1666.58" y1="2280.66" x2="1666.58" y2="2215.86" style="stroke:#F0F0F0;stroke-width:9.72"/>
	<line x1="1666.58" y1="2183.46" x2="1666.58" y2="2118.66" style="stroke:#F0F0F0;stroke-width:9.72"/>
	<line x1="1666.58" y1="2086.26" x2="1666.58" y2="2021.46" style="stroke:#F0F0F0;stroke-width:9.72"/>
	<line x1="1666.58" y1="1989.06" x2="1666.58" y2="1924.26" style="stroke:#F0F0F0;stroke-width:9.72"/>
	<line x1="1666.58" y1="1891.86" x2="1666.58" y2="1827.06" style="stroke:#F0F0F0;stroke-width:9.72"/>
	<line x1="1666.58" y1="1794.66" x2="1666.58" y2="1729.86" style="stroke:#F0F0F0;stroke-width:9.72"/>
	<line x1="1666.58" y1="1697.46" x2="1666.58" y2="1632.66" style="stroke:#F0F0F0;stroke-width:9.72"/>
	<line x1="1666.58" y1="1600.26" x2="1666.58" y2="1535.46" style="stroke:#F0F0F0;stroke-width:9.72"/>
	<line x1="1666.58" y1="1503.06" x2="1666.58" y2="1438.26" style="stroke:#F0F0F0;stroke-width:9.72"/>
	<line x1="1666.58" y1="1405.86" x2="1666.58" y2="1341.06" style="stroke:#F0F0F0;stroke-width:9.72"/>
	<line x1="1666.58" y1="1308.66" x2="1666.58" y2="1243.86" style="stroke:#F0F0F0;stroke-width:9.72"/>
	<line x1="1666.58" y1="1211.46" x2="1666.58" y2="1146.66" style="stroke:#F0F0F0;stroke-width:9.72"/>
	<line x1="1666.58" y1="1114.26" x2="1666.58" y2="1049.46" style="stroke:#F0F0F0;stroke-width:9.72"/>
	<line x1="1666.58" y1="1017.06" x2="1666.58" y2="952.26" style="stroke:#F0F0F0;stroke-width:9.72"/>
	<line x1="1666.58" y1="919.86" x2="1666.58" y2="855.06" style="stroke:#F0F0F0;stroke-width:9.72"/>
	<line x1="1666.58" y1="822.66" x2="1666.58" y2="757.86" style="stroke:#F0F0F0;stroke-width:9.72"/>
	<line x1="1666.58" y1="725.46" x2="1666.58" y2="660.66" style="stroke:#F0F0F0;stroke-width:9.72"/>
	<line x1="1666.58" y1="628.26" x2="1666.58" y2="563.46" style="stroke:#F0F0F0;stroke-width:9.72"/>
	<line x1="1666.58" y1="531.06" x2="1666.58" y2="466.26" style="stroke:#F0F0F0;stroke-width:9.72"/>
	<line x1="1666.58" y1="433.86" x2="1666.58" y2="369.06" style="stroke:#F0F0F0;stroke-width:9.72"/>
	<line x1="1666.58" y1="336.66" x2="1666.58" y2="309.82" style="stroke:#F0F0F0;stroke-width:9.72"/>
	<line x1="2849.51" y1="2766.66" x2="2849.51" y2="2701.86" style="stroke:#F0F0F0;stroke-width:9.72"/>
	<line x1="2849.51" y1="2669.46" x2="2849.51" y2="2604.66" style="stroke:#F0F0F0;stroke-width:9.72"/>
	<line x1="2849.51" y1="2572.26" x2="2849.51" y2="2507.46" style="stroke:#F0F0F0;stroke-width:9.72"/>
	<line x1="2849.51" y1="2475.06" x2="2849.51" y2="2410.26" style="stroke:#F0F0F0;stroke-width:9.72"/>
	<line x1="2849.51" y1="2377.86" x2="2849.51" y2="2313.06" style="stroke:#F0F0F0;stroke-width:9.72"/>
	<line x1="2849.51" y1="2280.66" x2="2849.51" y2="2215.86" style="stroke:#F0F0F0;stroke-width:9.72"/>
	<line x1="2849.51" y1="2183.46" x2="2849.51" y2="2118.66" style="stroke:#F0F0F0;stroke-width:9.72"/>
	<line x1="2849.51" y1="2086.26" x2="2849.51" y2="2021.46" style="stroke:#F0F0F0;stroke-width:9.72"/>
	<line x1="2849.51" y1="1989.06" x2="2849.51" y2="1924.26" style="stroke:#F0F0F0;stroke-width:9.72"/>
	<line x1="2849.51" y1="1891.86" x2="2849.51" y2="1827.06" style="stroke:#F0F0F0;stroke-width:9.72"/>
	<line x1="2849.51" y1="1794.66" x2="2849.51" y2="1729.86" style="stroke:#F0F0F0;stroke-width:9.72"/>
	<line x1="2849.51" y1="1697.46" x2="2849.51" y2="1632.66" style="stroke:#F0F0F0;stroke-width:9.72"/>
	<line x1="2849.51" y1="1600.26" x2="2849.51" y2="1535.46" style="stroke:#F0F0F0;stroke-width:9.72"/>
	<line x1="2849.51" y1="1503.06" x2="2849.51" y2="1438.26" style="stroke:#F0F0F0;stroke-width:9.72"/>
	<line x1="2849.51" y1="1405.86" x2="2849.51" y2="1341.06" style="stroke:#F0F0F0;stroke-width:9.72"/>
	<line x1="2849.51" y1="1308.66" x2="2849.51" y2="1243.86" style="stroke:#F0F0F0;stroke-width:9.72"/>
	<line x1="2849.51" y1="1211.46" x2="2849.51" y2="1146.66" style="stroke:#F0F0F0;stroke-width:9.72"/>
	<line x1="2849.51" y1="1114.26" x2="2849.51" y2="1049.46" style="stroke:#F0F0F0;stroke-width:9.72"/>
	<line x1="2849.51" y1="1017.06" x2="2849.51" y2="952.26" style="stroke:#F0F0F0;stroke-width:9.72"/>
	<line x1="2849.51" y1="919.86" x2="2849.51" y2="855.06" style="stroke:#F0F0F0;stroke-width:9.72"/>
	<line x1="2849.51" y1="822.66" x2="2849.51" y2="757.86" style="stroke:#F0F0F0;stroke-width:9.72"/>
	<line x1="2849.51" y1="725.46" x2="2849.51" y2="660.66" style="stroke:#F0F0F0;stroke-width:9.72"/>
	<line x1="2849.51" y1="628.26" x2="2849.51" y2="563.46" style="stroke:#F0F0F0;stroke-width:9.72"/>
	<line x1="2849.51" y1="531.06" x2="2849.51" y2="466.26" style="stroke:#F0F0F0;stroke-width:9.72"/>
	<line x1="2849.51" y1="433.86" x2="2849.51" y2="369.06" style="stroke:#F0F0F0;stroke-width:9.72"/>
	<line x1="2849.51" y1="336.66" x2="2849.51" y2="309.82" style="stroke:#F0F0F0;stroke-width:9.72"/>
	<line x1="4032.45" y1="2766.66" x2="4032.45" y2="2701.86" style="stroke:#F0F0F0;stroke-width:9.72"/>
	<line x1="4032.45" y1="2669.46" x2="4032.45" y2="2604.66" style="stroke:#F0F0F0;stroke-width:9.72"/>
	<line x1="4032.45" y1="2572.26" x2="4032.45" y2="2507.46" style="stroke:#F0F0F0;stroke-width:9.72"/>
	<line x1="4032.45" y1="2475.06" x2="4032.45" y2="2410.26" style="stroke:#F0F0F0;stroke-width:9.72"/>
	<line x1="4032.45" y1="2377.86" x2="4032.45" y2="2313.06" style="stroke:#F0F0F0;stroke-width:9.72"/>
	<line x1="4032.45" y1="2280.66" x2="4032.45" y2="2215.86" style="stroke:#F0F0F0;stroke-width:9.72"/>
	<line x1="4032.45" y1="2183.46" x2="4032.45" y2="2118.66" style="stroke:#F0F0F0;stroke-width:9.72"/>
	<line x1="4032.45" y1="2086.26" x2="4032.45" y2="2021.46" style="stroke:#F0F0F0;stroke-width:9.72"/>
	<line x1="4032.45" y1="1989.06" x2="4032.45" y2="1924.26" style="stroke:#F0F0F0;stroke-width:9.72"/>
	<line x1="4032.45" y1="1891.86" x2="4032.45" y2="1827.06" style="stroke:#F0F0F0;stroke-width:9.72"/>
	<line x1="4032.45" y1="1794.66" x2="4032.45" y2="1729.86" style="stroke:#F0F0F0;stroke-width:9.72"/>
	<line x1="4032.45" y1="1697.46" x2="4032.45" y2="1632.66" style="stroke:#F0F0F0;stroke-width:9.72"/>
	<line x1="4032.45" y1="1600.26" x2="4032.45" y2="1535.46" style="stroke:#F0F0F0;stroke-width:9.72"/>
	<line x1="4032.45" y1="1503.06" x2="4032.45" y2="1438.26" style="stroke:#F0F0F0;stroke-width:9.72"/>
	<line x1="4032.45" y1="1405.86" x2="4032.45" y2="1341.06" style="stroke:#F0F0F0;stroke-width:9.72"/>
	<line x1="4032.45" y1="1308.66" x2="4032.45" y2="1243.86" style="stroke:#F0F0F0;stroke-width:9.72"/>
	<line x1="4032.45" y1="1211.46" x2="4032.45" y2="1146.66" style="stroke:#F0F0F0;stroke-width:9.72"/>
	<line x1="4032.45" y1="1114.26" x2="4032.45" y2="1049.46" style="stroke:#F0F0F0;stroke-width:9.72"/>
	<line x1="4032.45" y1="1017.06" x2="4032.45" y2="952.26" style="stroke:#F0F0F0;stroke-width:9.72"/>
	<line x1="4032.45" y1="919.86" x2="4032.45" y2="855.06" style="stroke:#F0F0F0;stroke-width:9.72"/>
	<line x1="4032.45" y1="822.66" x2="4032.45" y2="757.86" style="stroke:#F0F0F0;stroke-width:9.72"/>
	<line x1="4032.45" y1="725.46" x2="4032.45" y2="660.66" style="stroke:#F0F0F0;stroke-width:9.72"/>
	<line x1="4032.45" y1="628.26" x2="4032.45" y2="563.46" style="stroke:#F0F0F0;stroke-width:9.72"/>
	<line x1="4032.45" y1="531.06" x2="4032.45" y2="466.26" style="stroke:#F0F0F0;stroke-width:9.72"/>
	<line x1="4032.45" y1="433.86" x2="4032.45" y2="369.06" style="stroke:#F0F0F0;stroke-width:9.72"/>
	<line x1="4032.45" y1="336.66" x2="4032.45" y2="309.82" style="stroke:#F0F0F0;stroke-width:9.72"/>
	<line x1="5215.39" y1="2766.66" x2="5215.39" y2="2701.86" style="stroke:#F0F0F0;stroke-width:9.72"/>
	<line x1="5215.39" y1="2669.46" x2="5215.39" y2="2604.66" style="stroke:#F0F0F0;stroke-width:9.72"/>
	<line x1="5215.39" y1="2572.26" x2="5215.39" y2="2507.46" style="stroke:#F0F0F0;stroke-width:9.72"/>
	<line x1="5215.39" y1="2475.06" x2="5215.39" y2="2410.26" style="stroke:#F0F0F0;stroke-width:9.72"/>
	<line x1="5215.39" y1="2377.86" x2="5215.39" y2="2313.06" style="stroke:#F0F0F0;stroke-width:9.72"/>
	<line x1="5215.39" y1="2280.66" x2="5215.39" y2="2215.86" style="stroke:#F0F0F0;stroke-width:9.72"/>
	<line x1="5215.39" y1="2183.46" x2="5215.39" y2="2118.66" style="stroke:#F0F0F0;stroke-width:9.72"/>
	<line x1="5215.39" y1="2086.26" x2="5215.39" y2="2021.46" style="stroke:#F0F0F0;stroke-width:9.72"/>
	<line x1="5215.39" y1="1989.06" x2="5215.39" y2="1924.26" style="stroke:#F0F0F0;stroke-width:9.72"/>
	<line x1="5215.39" y1="1891.86" x2="5215.39" y2="1827.06" style="stroke:#F0F0F0;stroke-width:9.72"/>
	<line x1="5215.39" y1="1794.66" x2="5215.39" y2="1729.86" style="stroke:#F0F0F0;stroke-width:9.72"/>
	<line x1="5215.39" y1="1697.46" x2="5215.39" y2="1632.66" style="stroke:#F0F0F0;stroke-width:9.72"/>
	<line x1="5215.39" y1="1600.26" x2="5215.39" y2="1535.46" style="stroke:#F0F0F0;stroke-width:9.72"/>
	<line x1="5215.39" y1="1503.06" x2="5215.39" y2="1438.26" style="stroke:#F0F0F0;stroke-width:9.72"/>
	<line x1="5215.39" y1="1405.86" x2="5215.39" y2="1341.06" style="stroke:#F0F0F0;stroke-width:9.72"/>
	<line x1="5215.39" y1="1308.66" x2="5215.39" y2="1243.86" style="stroke:#F0F0F0;stroke-width:9.72"/>
	<line x1="5215.39" y1="1211.46" x2="5215.39" y2="1146.66" style="stroke:#F0F0F0;stroke-width:9.72"/>
	<line x1="5215.39" y1="1114.26" x2="5215.39" y2="1049.46" style="stroke:#F0F0F0;stroke-width:9.72"/>
	<line x1="5215.39" y1="1017.06" x2="5215.39" y2="952.26" style="stroke:#F0F0F0;stroke-width:9.72"/>
	<line x1="5215.39" y1="919.86" x2="5215.39" y2="855.06" style="stroke:#F0F0F0;stroke-width:9.72"/>
	<line x1="5215.39" y1="822.66" x2="5215.39" y2="757.86" style="stroke:#F0F0F0;stroke-width:9.72"/>
	<line x1="5215.39" y1="725.46" x2="5215.39" y2="660.66" style="stroke:#F0F0F0;stroke-width:9.72"/>
	<line x1="5215.39" y1="628.26" x2="5215.39" y2="563.46" style="stroke:#F0F0F0;stroke-width:9.72"/>
	<line x1="5215.39" y1="531.06" x2="5215.39" y2="466.26" style="stroke:#F0F0F0;stroke-width:9.72"/>
	<line x1="5215.39" y1="433.86" x2="5215.39" y2="369.06" style="stroke:#F0F0F0;stroke-width:9.72"/>
	<line x1="5215.39" y1="336.66" x2="5215.39" y2="309.82" style="stroke:#F0F0F0;stroke-width:9.72"/>
	<path d=" M483.64 2695.44 L483.64 2695.44 L483.64 2695.44 L483.64 2695.44 L483.64 2695.44 L483.64 2695.44 L483.64 2695.44 L483.64 2695.44 L483.64 2695.44 L562.44 2695.44 L562.44 2689.88 L621.67 2689.88 L621.67 2687.01 L641.42 2687.01 L641.42 2684.31 L680.74 2684.31 L680.74 2681.44 L700.48 2681.44 L700.48 2675.87 L779.46 2675.87 L779.46 2673.17 L818.78 2673.17 L818.78 2664.73 L858.26 2664.73 L858.26 2662.03 L878.01 2662.03 L878.01 2659.16 L917.33 2659.16 L917.33 2656.46 L1015.88 2656.46 L1015.88 2653.59 L1055.36 2653.59 L1055.36 2650.89 L1075.11 2650.89 L1075.11 2648.03 L1134.17 2648.03 L1134.17 2645.33 L1153.91 2645.33 L1153.91 2639.76 L1173.66 2639.76 L1173.66 2636.89 L1232.89 2636.89 L1232.89 2634.02 L1272.21 2634.02 L1272.21 2628.45 L1311.69 2628.45 L1311.69 2625.75 L1331.44 2625.75 L1331.44 2622.88 L1351.18 2622.88 L1351.18 2620.18 L1429.99 2620.18 L1429.99 2617.31 L1449.73 2617.31 L1449.73 2614.61 L1469.48 2614.61 L1469.48 2611.74 L1587.77 2611.74 L1587.77 2609.04 L1705.89 2609.04 L1705.89 2603.48 L1725.64 2603.48 L1725.64 2600.61 L1765.13 2600.61 L1765.13 2597.91 L1784.87 2597.91 L1784.87 2595.04 L1843.93 2595.04 L1843.93 2592.34 L1863.68 2592.34 L1863.68 2586.77 L1903.16 2586.77 L1903.16 2583.90 L1922.91 2583.90 L1922.91 2578.33 L1942.48 2578.33 L1942.48 2570.06 L2080.52 2570.06 L2080.52 2564.49 L2120.01 2564.49 L2120.01 2561.63 L2159.49 2561.63 L2159.49 2556.06 L2179.07 2556.06 L2179.07 2550.49 L2277.79 2550.49 L2277.79 2544.92 L2297.36 2544.92 L2297.36 2539.35 L2336.85 2539.35 L2336.85 2536.48 L2376.34 2536.48 L2376.34 2533.78 L2396.08 2533.78 L2396.08 2530.91 L2435.40 2530.91 L2435.40 2525.34 L2455.14 2525.34 L2455.14 2522.64 L2474.89 2522.64 L2474.89 2517.07 L2553.69 2517.07 L2553.69 2508.64 L2632.50 2508.64 L2632.50 2503.07 L2691.73 2503.07 L2691.73 2500.37 L2711.48 2500.37 L2711.48 2497.50 L2731.22 2497.50 L2731.22 2494.80 L2790.28 2494.80 L2790.28 2486.36 L2829.77 2486.36 L2829.77 2483.66 L2869.09 2483.66 L2869.09 2480.79 L2888.83 2480.79 L2888.83 2478.09 L2908.58 2478.09 L2908.58 2472.53 L2928.32 2472.53 L2928.32 2466.96 L2987.38 2466.96 L2987.38 2464.09 L3026.87 2464.09 L3026.87 2458.52 L3046.61 2458.52 L3046.61 2455.82 L3086.10 2455.82 L3086.10 2447.38 L3105.68 2447.38 L3105.68 2444.51 L3164.91 2444.51 L3164.91 2438.94 L3204.39 2438.94 L3204.39 2433.38 L3263.46 2433.38 L3263.46 2430.68 L3302.94 2430.68 L3302.94 2425.11 L3322.52 2425.11 L3322.52 2422.24 L3342.26 2422.24 L3342.26 2419.54 L3362.01 2419.54 L3362.01 2413.97 L3401.49 2413.97 L3401.49 2408.40 L3421.24 2408.40 L3421.24 2405.53 L3460.56 2405.53 L3460.56 2402.83 L3480.30 2402.83 L3480.30 2397.26 L3539.53 2397.26 L3539.53 2391.69 L3559.11 2391.69 L3559.11 2388.82 L3578.85 2388.82 L3578.85 2386.13 L3598.59 2386.13 L3598.59 2383.26 L3618.34 2383.26 L3618.34 2374.99 L3638.08 2374.99 L3638.08 2369.42 L3716.89 2369.42 L3716.89 2366.55 L3736.63 2366.55 L3736.63 2360.98 L3756.38 2360.98 L3756.38 2358.11 L3795.69 2358.11 L3795.69 2355.41 L3835.18 2355.41 L3835.18 2349.84 L3854.93 2349.84 L3854.93 2346.98 L3874.67 2346.98 L3874.67 2344.28 L3913.99 2344.28 L3913.99 2341.41 L3933.73 2341.41 L3933.73 2335.84 L3953.48 2335.84 L3953.48 2333.14 L3973.22 2333.14 L3973.22 2330.27 L3992.96 2330.27 L3992.96 2327.57 L4032.28 2327.57 L4032.28 2322.00 L4052.03 2322.00 L4052.03 2319.13 L4071.77 2319.13 L4071.77 2316.43 L4091.51 2316.43 L4091.51 2313.56 L4130.83 2313.56 L4130.83 2310.86 L4249.13 2310.86 L4249.13 2305.29 L4288.61 2305.29 L4288.61 2299.73 L4328.10 2299.73 L4328.10 2288.59 L4466.14 2288.59 L4466.14 2283.02 L4485.71 2283.02 L4485.71 2280.15 L4505.46 2280.15 L4505.46 2274.58 L4525.20 2274.58 L4525.20 2269.01 L4564.69 2269.01 L4564.69 2266.14 L4604.01 2266.14 L4604.01 2263.44 L4643.49 2263.44 L4643.49 2255.01 L4682.98 2255.01 L4682.98 2249.44 L4702.73 2249.44 L4702.73 2241.17 L4722.30 2241.17 L4722.30 2235.60 L4742.04 2235.60 L4742.04 2232.73 L4801.27 2232.73 L4801.27 2227.16 L4840.59 2227.16 L4840.59 2224.46 L4880.08 2224.46 L4880.08 2221.59 L4939.31 2221.59 L4939.31 2216.03 L4958.89 2216.03 L4958.89 2210.46 L4978.63 2210.46 L4978.63 2210.46 L4998.38 2210.46 L4998.38 2210.46 L5018.12 2210.46 L5018.12 2207.59 L5037.86 2207.59 L5037.86 2201.34 L5057.44 2201.34 L5057.44 2198.14 L5077.18 2198.14 L5077.18 2198.14 L5096.93 2198.14 L5096.93 2194.43 L5116.67 2194.43 L5116.67 2190.71 L5136.41 2190.71 L5136.41 2190.71 L5156.16 2190.71 L5156.16 2190.71 L5175.73 2190.71 L5175.73 2190.71 L5195.48 2190.71 L5195.48 2190.71 L5215.22 2190.71 L5215.22 2190.71 L5215.22 2190.71 L5215.22 2190.71" stroke-linejoin="round" style="fill:none;stroke:#1A85FF;stroke-width:9.72"/>
	<path d=" M483.64 2695.44 L483.64 2695.44 L483.64 2695.44 L483.64 2695.44 L483.64 2695.44 L483.64 2695.44 L483.64 2695.44 L483.64 2695.44 L483.64 2695.44 L503.38 2695.44 L503.38 2693.25 L523.13 2693.25 L523.13 2691.23 L542.87 2691.23 L542.87 2689.20 L582.19 2689.20 L582.19 2687.01 L621.67 2687.01 L621.67 2678.74 L759.71 2678.74 L759.71 2676.71 L779.46 2676.71 L779.46 2672.49 L799.03 2672.49 L799.03 2668.28 L818.78 2668.28 L818.78 2666.25 L878.01 2666.25 L878.01 2664.23 L897.58 2664.23 L897.58 2662.03 L917.33 2662.03 L917.33 2660.01 L937.07 2660.01 L937.07 2657.98 L956.81 2657.98 L956.81 2653.76 L996.30 2653.76 L996.30 2651.74 L1094.85 2651.74 L1094.85 2649.54 L1114.59 2649.54 L1114.59 2647.52 L1134.17 2647.52 L1134.17 2645.49 L1153.91 2645.49 L1153.91 2643.30 L1173.66 2643.30 L1173.66 2641.28 L1213.14 2641.28 L1213.14 2639.25 L1252.46 2639.25 L1252.46 2637.06 L1272.21 2637.06 L1272.21 2635.03 L1291.95 2635.03 L1291.95 2633.01 L1311.69 2633.01 L1311.69 2630.81 L1331.44 2630.81 L1331.44 2626.76 L1351.18 2626.76 L1351.18 2620.52 L1370.76 2620.52 L1370.76 2618.32 L1410.24 2618.32 L1410.24 2616.30 L1449.73 2616.30 L1449.73 2612.08 L1489.05 2612.08 L1489.05 2610.06 L1508.79 2610.06 L1508.79 2605.84 L1528.54 2605.84 L1528.54 2603.81 L1568.03 2603.81 L1568.03 2601.62 L1607.34 2601.62 L1607.34 2597.57 L1627.09 2597.57 L1627.09 2593.35 L1646.83 2593.35 L1646.83 2589.13 L1666.58 2589.13 L1666.58 2585.08 L1686.32 2585.08 L1686.32 2578.84 L1725.64 2578.84 L1725.64 2574.62 L1745.38 2574.62 L1745.38 2568.38 L1765.13 2568.38 L1765.13 2566.35 L1784.87 2566.35 L1784.87 2562.13 L1804.61 2562.13 L1804.61 2560.11 L1824.19 2560.11 L1824.19 2557.91 L1843.93 2557.91 L1843.93 2553.86 L1863.68 2553.86 L1863.68 2549.64 L1883.42 2549.64 L1883.42 2547.62 L1922.91 2547.62 L1922.91 2541.38 L1942.48 2541.38 L1942.48 2539.18 L1962.23 2539.18 L1962.23 2537.16 L1981.97 2537.16 L1981.97 2535.13 L2001.71 2535.13 L2001.71 2530.91 L2041.20 2530.91 L2041.20 2522.48 L2060.78 2522.48 L2060.78 2518.43 L2080.52 2518.43 L2080.52 2516.23 L2100.26 2516.23 L2100.26 2512.18 L2159.49 2512.18 L2159.49 2509.99 L2179.07 2509.99 L2179.07 2505.94 L2198.81 2505.94 L2198.81 2503.74 L2218.56 2503.74 L2218.56 2499.69 L2238.30 2499.69 L2238.30 2493.45 L2258.04 2493.45 L2258.04 2489.23 L2297.36 2489.23 L2297.36 2485.01 L2317.11 2485.01 L2317.11 2482.99 L2336.85 2482.99 L2336.85 2480.96 L2376.34 2480.96 L2376.34 2478.77 L2396.08 2478.77 L2396.08 2474.72 L2435.40 2474.72 L2435.40 2472.53 L2455.14 2472.53 L2455.14 2470.50 L2474.89 2470.50 L2474.89 2468.48 L2494.63 2468.48 L2494.63 2464.26 L2514.21 2464.26 L2514.21 2462.23 L2533.95 2462.23 L2533.95 2455.99 L2593.18 2455.99 L2593.18 2451.77 L2612.93 2451.77 L2612.93 2445.53 L2632.50 2445.53 L2632.50 2443.33 L2671.99 2443.33 L2671.99 2441.31 L2711.48 2441.31 L2711.48 2435.06 L2731.22 2435.06 L2731.22 2430.84 L2750.79 2430.84 L2750.79 2426.79 L2770.54 2426.79 L2770.54 2424.60 L2790.28 2424.60 L2790.28 2418.36 L2810.03 2418.36 L2810.03 2412.11 L2829.77 2412.11 L2829.77 2408.06 L2869.09 2408.06 L2869.09 2401.82 L2888.83 2401.82 L2888.83 2399.63 L2928.32 2399.63 L2928.32 2393.38 L2967.81 2393.38 L2967.81 2387.14 L2987.38 2387.14 L2987.38 2380.89 L3007.13 2380.89 L3007.13 2374.65 L3046.61 2374.65 L3046.61 2370.60 L3066.36 2370.60 L3066.36 2368.41 L3105.68 2368.41 L3105.68 2366.38 L3164.91 2366.38 L3164.91 2360.14 L3184.65 2360.14 L3184.65 2351.70 L3204.39 2351.70 L3204.39 2349.68 L3223.97 2349.68 L3223.97 2341.41 L3243.71 2341.41 L3243.71 2337.19 L3263.46 2337.19 L3263.46 2335.16 L3283.20 2335.16 L3283.20 2328.92 L3302.94 2328.92 L3302.94 2326.73 L3322.52 2326.73 L3322.52 2324.70 L3342.26 2324.70 L3342.26 2320.48 L3362.01 2320.48 L3362.01 2318.46 L3381.75 2318.46 L3381.75 2316.43 L3401.49 2316.43 L3401.49 2314.24 L3440.81 2314.24 L3440.81 2310.19 L3460.56 2310.19 L3460.56 2307.99 L3500.04 2307.99 L3500.04 2305.97 L3519.79 2305.97 L3519.79 2303.94 L3539.53 2303.94 L3539.53 2301.75 L3559.11 2301.75 L3559.11 2299.73 L3578.85 2299.73 L3578.85 2293.48 L3598.59 2293.48 L3598.59 2291.46 L3618.34 2291.46 L3618.34 2289.26 L3638.08 2289.26 L3638.08 2287.24 L3677.40 2287.24 L3677.40 2285.04 L3736.63 2285.04 L3736.63 2278.80 L3756.38 2278.80 L3756.38 2274.75 L3776.12 2274.75 L3776.12 2270.53 L3795.69 2270.53 L3795.69 2266.31 L3835.18 2266.31 L3835.18 2264.29 L3854.93 2264.29 L3854.93 2260.07 L3874.67 2260.07 L3874.67 2258.04 L3913.99 2258.04 L3913.99 2253.82 L3933.73 2253.82 L3933.73 2249.78 L3953.48 2249.78 L3953.48 2245.56 L3973.22 2245.56 L3973.22 2241.34 L3992.96 2241.34 L3992.96 2237.29 L4012.71 2237.29 L4012.71 2235.09 L4032.28 2235.09 L4032.28 2231.04 L4052.03 2231.04 L4052.03 2228.85 L4071.77 2228.85 L4071.77 2218.56 L4111.26 2218.56 L4111.26 2210.12 L4150.58 2210.12 L4150.58 2208.09 L4190.06 2208.09 L4190.06 2203.88 L4209.81 2203.88 L4209.81 2201.85 L4229.55 2201.85 L4229.55 2195.61 L4249.13 2195.61 L4249.13 2191.39 L4268.87 2191.39 L4268.87 2189.36 L4288.61 2189.36 L4288.61 2187.17 L4308.36 2187.17 L4308.36 2183.12 L4347.84 2183.12 L4347.84 2180.93 L4367.42 2180.93 L4367.42 2178.90 L4387.16 2178.90 L4387.16 2174.68 L4406.91 2174.68 L4406.91 2172.66 L4446.39 2172.66 L4446.39 2164.39 L4466.14 2164.39 L4466.14 2162.19 L4485.71 2162.19 L4485.71 2160.17 L4505.46 2160.17 L4505.46 2158.14 L4525.20 2158.14 L4525.20 2153.93 L4544.94 2153.93 L4544.94 2149.71 L4564.69 2149.71 L4564.69 2147.68 L4584.43 2147.68 L4584.43 2145.66 L4604.01 2145.66 L4604.01 2143.46 L4623.75 2143.46 L4623.75 2139.41 L4643.49 2139.41 L4643.49 2135.19 L4663.24 2135.19 L4663.24 2130.98 L4682.98 2130.98 L4682.98 2126.93 L4702.73 2126.93 L4702.73 2124.73 L4722.30 2124.73 L4722.30 2114.27 L4742.04 2114.27 L4742.04 2106.00 L4761.79 2106.00 L4761.79 2101.78 L4781.53 2101.78 L4781.53 2097.73 L4801.27 2097.73 L4801.27 2093.51 L4821.02 2093.51 L4821.02 2089.29 L4840.59 2089.29 L4840.59 2087.27 L4880.08 2087.27 L4880.08 2083.05 L4899.83 2083.05 L4899.83 2081.03 L4919.57 2081.03 L4919.57 2079.00 L4939.31 2079.00 L4939.31 2076.81 L4958.89 2076.81 L4958.89 2072.76 L4978.63 2072.76 L4978.63 2072.76 L4998.38 2072.76 L4998.38 2070.56 L5018.12 2070.56 L5018.12 2061.96 L5037.86 2061.96 L5037.86 2054.87 L5057.44 2054.87 L5057.44 2052.51 L5077.18 2052.51 L5077.18 2049.81 L5096.93 2049.81 L5096.93 2046.94 L5116.67 2046.94 L5116.67 2041.20 L5136.41 2041.20 L5136.41 2034.96 L5156.16 2034.96 L5156.16 2034.96 L5175.73 2034.96 L5175.73 2027.87 L5195.48 2027.87 L5195.48 2027.87 L5215.22 2027.87 L5215.22 2019.60 L5215.22 2019.60 L5215.22 2019.60" stroke-linejoin="round" style="fill:none;stroke:#D41159;stroke-width:9.72"/>
	<path d=" M483.64 2695.44 L483.64 2695.44 L483.64 2695.44 L483.64 2695.44 L483.64 2695.44 L483.64 2695.44 L483.64 2695.44 L483.64 2695.44 L483.64 2695.44 L542.87 2695.44 L542.87 2692.07 L562.44 2692.07 L562.44 2690.38 L621.67 2690.38 L621.67 2688.69 L641.42 2688.69 L641.42 2687.01 L680.74 2687.01 L680.74 2685.32 L700.48 2685.32 L700.48 2683.63 L739.97 2683.63 L739.97 2678.57 L779.46 2678.57 L779.46 2676.88 L799.03 2676.88 L799.03 2673.51 L818.78 2673.51 L818.78 2670.13 L838.52 2670.13 L838.52 2668.44 L858.26 2668.44 L858.26 2660.01 L878.01 2660.01 L878.01 2648.19 L897.58 2648.19 L897.58 2643.13 L917.33 2643.13 L917.33 2638.07 L937.07 2638.07 L937.07 2634.69 L956.81 2634.69 L956.81 2627.94 L976.56 2627.94 L976.56 2622.88 L996.30 2622.88 L996.30 2619.34 L1015.88 2619.34 L1015.88 2615.96 L1035.62 2615.96 L1035.62 2612.59 L1055.36 2612.59 L1055.36 2609.21 L1075.11 2609.21 L1075.11 2605.84 L1094.85 2605.84 L1094.85 2604.15 L1114.59 2604.15 L1114.59 2600.78 L1134.17 2600.78 L1134.17 2599.09 L1153.91 2599.09 L1153.91 2597.40 L1173.66 2597.40 L1173.66 2594.03 L1193.40 2594.03 L1193.40 2592.34 L1213.14 2592.34 L1213.14 2587.28 L1232.89 2587.28 L1232.89 2582.21 L1252.46 2582.21 L1252.46 2580.53 L1272.21 2580.53 L1272.21 2575.46 L1311.69 2575.46 L1311.69 2573.78 L1331.44 2573.78 L1331.44 2568.71 L1351.18 2568.71 L1351.18 2565.34 L1370.76 2565.34 L1370.76 2560.28 L1390.50 2560.28 L1390.50 2556.90 L1410.24 2556.90 L1410.24 2555.21 L1429.99 2555.21 L1429.99 2551.84 L1449.73 2551.84 L1449.73 2548.46 L1489.05 2548.46 L1489.05 2546.78 L1508.79 2546.78 L1508.79 2545.09 L1528.54 2545.09 L1528.54 2543.40 L1548.28 2543.40 L1548.28 2541.71 L1568.03 2541.71 L1568.03 2533.28 L1587.77 2533.28 L1587.77 2531.59 L1607.34 2531.59 L1607.34 2526.53 L1627.09 2526.53 L1627.09 2523.15 L1646.83 2523.15 L1646.83 2518.09 L1666.58 2518.09 L1666.58 2514.71 L1686.32 2514.71 L1686.32 2511.34 L1705.89 2511.34 L1705.89 2509.65 L1725.64 2509.65 L1725.64 2506.28 L1745.38 2506.28 L1745.38 2502.90 L1765.13 2502.90 L1765.13 2497.84 L1784.87 2497.84 L1784.87 2489.40 L1804.61 2489.40 L1804.61 2486.03 L1824.19 2486.03 L1824.19 2482.65 L1843.93 2482.65 L1843.93 2477.59 L1863.68 2477.59 L1863.68 2469.15 L1883.42 2469.15 L1883.42 2464.09 L1903.16 2464.09 L1903.16 2457.34 L1922.91 2457.34 L1922.91 2455.65 L1942.48 2455.65 L1942.48 2453.96 L1962.23 2453.96 L1962.23 2452.28 L1981.97 2452.28 L1981.97 2448.90 L2021.46 2448.90 L2021.46 2443.84 L2041.20 2443.84 L2041.20 2438.78 L2060.78 2438.78 L2060.78 2433.71 L2080.52 2433.71 L2080.52 2428.65 L2100.26 2428.65 L2100.26 2423.59 L2120.01 2423.59 L2120.01 2418.53 L2139.75 2418.53 L2139.75 2410.09 L2159.49 2410.09 L2159.49 2408.40 L2179.07 2408.40 L2179.07 2405.03 L2198.81 2405.03 L2198.81 2398.28 L2218.56 2398.28 L2218.56 2391.36 L2258.04 2391.36 L2258.04 2386.29 L2277.79 2386.29 L2277.79 2381.23 L2297.36 2381.23 L2297.36 2377.86 L2317.11 2377.86 L2317.11 2371.11 L2336.85 2371.11 L2336.85 2366.04 L2356.59 2366.04 L2356.59 2360.98 L2376.34 2360.98 L2376.34 2359.29 L2396.08 2359.29 L2396.08 2354.23 L2415.66 2354.23 L2415.66 2345.79 L2435.40 2345.79 L2435.40 2342.42 L2455.14 2342.42 L2455.14 2337.36 L2474.89 2337.36 L2474.89 2333.98 L2494.63 2333.98 L2494.63 2332.29 L2514.21 2332.29 L2514.21 2325.54 L2533.95 2325.54 L2533.95 2320.48 L2553.69 2320.48 L2553.69 2315.42 L2573.44 2315.42 L2573.44 2313.73 L2593.18 2313.73 L2593.18 2312.04 L2612.93 2312.04 L2612.93 2306.98 L2632.50 2306.98 L2632.50 2303.61 L2652.24 2303.61 L2652.24 2295.17 L2671.99 2295.17 L2671.99 2293.48 L2691.73 2293.48 L2691.73 2288.42 L2711.48 2288.42 L2711.48 2285.04 L2731.22 2285.04 L2731.22 2281.67 L2750.79 2281.67 L2750.79 2273.23 L2790.28 2273.23 L2790.28 2269.86 L2810.03 2269.86 L2810.03 2268.17 L2829.77 2268.17 L2829.77 2264.79 L2849.51 2264.79 L2849.51 2261.42 L2869.09 2261.42 L2869.09 2254.67 L2888.83 2254.67 L2888.83 2251.29 L2908.58 2251.29 L2908.58 2237.79 L2928.32 2237.79 L2928.32 2236.11 L2948.06 2236.11 L2948.06 2232.73 L2967.81 2232.73 L2967.81 2222.61 L2987.38 2222.61 L2987.38 2220.92 L3007.13 2220.92 L3007.13 2215.86 L3026.87 2215.86 L3026.87 2212.48 L3046.61 2212.48 L3046.61 2210.79 L3066.36 2210.79 L3066.36 2209.11 L3086.10 2209.11 L3086.10 2202.36 L3105.68 2202.36 L3105.68 2200.67 L3125.42 2200.67 L3125.42 2198.98 L3145.16 2198.98 L3145.16 2197.29 L3164.91 2197.29 L3164.91 2195.61 L3184.65 2195.61 L3184.65 2190.54 L3204.39 2190.54 L3204.39 2185.48 L3223.97 2185.48 L3223.97 2183.79 L3263.46 2183.79 L3263.46 2178.73 L3283.20 2178.73 L3283.20 2173.67 L3302.94 2173.67 L3302.94 2171.98 L3322.52 2171.98 L3322.52 2168.61 L3342.26 2168.61 L3342.26 2163.38 L3362.01 2163.38 L3362.01 2160.00 L3381.75 2160.00 L3381.75 2158.31 L3401.49 2158.31 L3401.49 2156.63 L3421.24 2156.63 L3421.24 2151.56 L3460.56 2151.56 L3460.56 2146.50 L3480.30 2146.50 L3480.30 2144.81 L3500.04 2144.81 L3500.04 2143.13 L3539.53 2143.13 L3539.53 2141.44 L3559.11 2141.44 L3559.11 2139.75 L3578.85 2139.75 L3578.85 2136.38 L3598.59 2136.38 L3598.59 2126.25 L3618.34 2126.25 L3618.34 2124.56 L3638.08 2124.56 L3638.08 2122.88 L3657.83 2122.88 L3657.83 2121.19 L3677.40 2121.19 L3677.40 2119.50 L3697.14 2119.50 L3697.14 2112.75 L3716.89 2112.75 L3716.89 2109.38 L3736.63 2109.38 L3736.63 2106.00 L3756.38 2106.00 L3756.38 2102.63 L3776.12 2102.63 L3776.12 2100.94 L3795.69 2100.94 L3795.69 2094.19 L3815.44 2094.19 L3815.44 2089.13 L3835.18 2089.13 L3835.18 2079.00 L3854.93 2079.00 L3854.93 2077.31 L3874.67 2077.31 L3874.67 2073.94 L3894.41 2073.94 L3894.41 2067.19 L3913.99 2067.19 L3913.99 2063.81 L3933.73 2063.81 L3933.73 2058.75 L3953.48 2058.75 L3953.48 2057.06 L3973.22 2057.06 L3973.22 2052.00 L3992.96 2052.00 L3992.96 2048.63 L4012.71 2048.63 L4012.71 2043.56 L4032.28 2043.56 L4032.28 2038.50 L4052.03 2038.50 L4052.03 2033.44 L4091.51 2033.44 L4091.51 2026.69 L4111.26 2026.69 L4111.26 2021.63 L4130.83 2021.63 L4130.83 2016.56 L4150.58 2016.56 L4150.58 2014.88 L4170.32 2014.88 L4170.32 2009.81 L4190.06 2009.81 L4190.06 2001.38 L4229.55 2001.38 L4229.55 1998.00 L4249.13 1998.00 L4249.13 1992.94 L4268.87 1992.94 L4268.87 1991.25 L4288.61 1991.25 L4288.61 1989.56 L4308.36 1989.56 L4308.36 1986.19 L4328.10 1986.19 L4328.10 1981.13 L4347.84 1981.13 L4347.84 1977.75 L4367.42 1977.75 L4367.42 1976.06 L4387.16 1976.06 L4387.16 1969.31 L4426.65 1969.31 L4426.65 1967.63 L4446.39 1967.63 L4446.39 1962.56 L4466.14 1962.56 L4466.14 1960.88 L4485.71 1960.88 L4485.71 1957.50 L4505.46 1957.50 L4505.46 1954.13 L4525.20 1954.13 L4525.20 1947.38 L4544.94 1947.38 L4544.94 1940.63 L4564.69 1940.63 L4564.69 1935.39 L4584.43 1935.39 L4584.43 1933.71 L4604.01 1933.71 L4604.01 1932.02 L4623.75 1932.02 L4623.75 1926.96 L4643.49 1926.96 L4643.49 1925.27 L4663.24 1925.27 L4663.24 1923.58 L4682.98 1923.58 L4682.98 1920.21 L4702.73 1920.21 L4702.73 1915.14 L4722.30 1915.14 L4722.30 1911.77 L4742.04 1911.77 L4742.04 1906.71 L4761.79 1906.71 L4761.79 1901.64 L4781.53 1901.64 L4781.53 1899.96 L4801.27 1899.96 L4801.27 1891.52 L4821.02 1891.52 L4821.02 1886.46 L4840.59 1886.46 L4840.59 1884.77 L4860.34 1884.77 L4860.34 1881.39 L4880.08 1881.39 L4880.08 1878.02 L4899.83 1878.02 L4899.83 1872.96 L4919.57 1872.96 L4919.57 1871.27 L4939.31 1871.27 L4939.31 1866.21 L4958.89 1866.21 L4958.89 1862.83 L4978.63 1862.83 L4978.63 1861.14 L4998.38 1861.14 L4998.38 1852.71 L5018.12 1852.71 L5018.12 1849.16 L5037.86 1849.16 L5037.86 1843.43 L5057.44 1843.43 L5057.44 1839.38 L5077.18 1839.38 L5077.18 1837.18 L5096.93 1837.18 L5096.93 1830.43 L5116.67 1830.43 L5116.67 1828.07 L5136.41 1828.07 L5136.41 1825.54 L5156.16 1825.54 L5156.16 1823.01 L5175.73 1823.01 L5175.73 1817.10 L5195.48 1817.10 L5195.48 1817.10 L5215.22 1817.10 L5215.22 1813.56 L5215.22 1813.56 L5215.22 1813.56" stroke-linejoin="round" style="fill:none;stroke:#00BF7F;stroke-width:9.72"/>
	<path d=" M483.64 2695.44 L483.64 2695.44 L483.64 2695.44 L483.64 2695.44 L483.64 2695.44 L483.64 2695.44 L483.64 2695.44 L483.64 2695.44 L483.64 2695.44 L503.38 2695.44 L503.38 2689.71 L542.87 2689.71 L542.87 2681.10 L562.44 2681.10 L562.44 2678.23 L621.67 2678.23 L621.67 2675.36 L641.42 2675.36 L641.42 2666.59 L661.16 2666.59 L661.16 2663.72 L680.74 2663.72 L680.74 2660.85 L700.48 2660.85 L700.48 2655.11 L739.97 2655.11 L739.97 2652.24 L759.71 2652.24 L759.71 2649.38 L799.03 2649.38 L799.03 2640.77 L818.78 2640.77 L818.78 2635.03 L838.52 2635.03 L838.52 2632.16 L858.26 2632.16 L858.26 2629.29 L897.58 2629.29 L897.58 2623.56 L917.33 2623.56 L917.33 2620.69 L937.07 2620.69 L937.07 2612.08 L956.81 2612.08 L956.81 2603.48 L976.56 2603.48 L976.56 2594.70 L996.30 2594.70 L996.30 2591.83 L1015.88 2591.83 L1015.88 2583.23 L1035.62 2583.23 L1035.62 2577.49 L1055.36 2577.49 L1055.36 2568.88 L1075.11 2568.88 L1075.11 2557.41 L1094.85 2557.41 L1094.85 2554.54 L1114.59 2554.54 L1114.59 2548.80 L1134.17 2548.80 L1134.17 2534.46 L1153.91 2534.46 L1153.91 2528.55 L1173.66 2528.55 L1173.66 2519.94 L1193.40 2519.94 L1193.40 2514.21 L1213.14 2514.21 L1213.14 2502.73 L1232.89 2502.73 L1232.89 2491.26 L1252.46 2491.26 L1252.46 2488.39 L1291.95 2488.39 L1291.95 2482.65 L1311.69 2482.65 L1311.69 2474.04 L1331.44 2474.04 L1331.44 2471.18 L1351.18 2471.18 L1351.18 2465.44 L1390.50 2465.44 L1390.50 2459.70 L1429.99 2459.70 L1429.99 2453.79 L1449.73 2453.79 L1449.73 2450.93 L1469.48 2450.93 L1469.48 2445.19 L1489.05 2445.19 L1489.05 2439.45 L1508.79 2439.45 L1508.79 2430.84 L1528.54 2430.84 L1528.54 2425.11 L1548.28 2425.11 L1548.28 2416.50 L1568.03 2416.50 L1568.03 2405.03 L1587.77 2405.03 L1587.77 2396.42 L1607.34 2396.42 L1607.34 2390.68 L1627.09 2390.68 L1627.09 2381.91 L1646.83 2381.91 L1646.83 2373.30 L1666.58 2373.30 L1666.58 2370.43 L1686.32 2370.43 L1686.32 2361.82 L1705.89 2361.82 L1705.89 2350.35 L1725.64 2350.35 L1725.64 2341.74 L1765.13 2341.74 L1765.13 2330.27 L1784.87 2330.27 L1784.87 2321.66 L1804.61 2321.66 L1804.61 2312.89 L1824.19 2312.89 L1824.19 2301.41 L1843.93 2301.41 L1843.93 2298.54 L1863.68 2298.54 L1863.68 2295.68 L1883.42 2295.68 L1883.42 2292.81 L1903.16 2292.81 L1903.16 2281.33 L1922.91 2281.33 L1922.91 2275.59 L1962.23 2275.59 L1962.23 2269.86 L1981.97 2269.86 L1981.97 2261.25 L2001.71 2261.25 L2001.71 2255.51 L2021.46 2255.51 L2021.46 2243.87 L2041.20 2243.87 L2041.20 2238.13 L2060.78 2238.13 L2060.78 2226.66 L2080.52 2226.66 L2080.52 2218.05 L2100.26 2218.05 L2100.26 2212.31 L2120.01 2212.31 L2120.01 2209.44 L2159.49 2209.44 L2159.49 2200.84 L2179.07 2200.84 L2179.07 2195.10 L2198.81 2195.10 L2198.81 2192.23 L2218.56 2192.23 L2218.56 2183.63 L2238.30 2183.63 L2238.30 2177.89 L2258.04 2177.89 L2258.04 2169.11 L2297.36 2169.11 L2297.36 2160.51 L2317.11 2160.51 L2317.11 2157.64 L2336.85 2157.64 L2336.85 2151.90 L2356.59 2151.90 L2356.59 2146.16 L2376.34 2146.16 L2376.34 2143.29 L2396.08 2143.29 L2396.08 2140.43 L2415.66 2140.43 L2415.66 2131.82 L2455.14 2131.82 L2455.14 2123.21 L2474.89 2123.21 L2474.89 2120.34 L2494.63 2120.34 L2494.63 2108.87 L2533.95 2108.87 L2533.95 2097.23 L2553.69 2097.23 L2553.69 2088.62 L2573.44 2088.62 L2573.44 2082.88 L2593.18 2082.88 L2593.18 2074.28 L2612.93 2074.28 L2612.93 2068.54 L2632.50 2068.54 L2632.50 2062.80 L2652.24 2062.80 L2652.24 2057.06 L2671.99 2057.06 L2671.99 2051.32 L2691.73 2051.32 L2691.73 2045.59 L2711.48 2045.59 L2711.48 2034.11 L2731.22 2034.11 L2731.22 2019.60 L2750.79 2019.60 L2750.79 2013.86 L2770.54 2013.86 L2770.54 2010.99 L2790.28 2010.99 L2790.28 2005.26 L2810.03 2005.26 L2810.03 1999.52 L2829.77 1999.52 L2829.77 1993.78 L2849.51 1993.78 L2849.51 1979.44 L2869.09 1979.44 L2869.09 1976.57 L2888.83 1976.57 L2888.83 1973.70 L2908.58 1973.70 L2908.58 1970.83 L2928.32 1970.83 L2928.32 1967.96 L2948.06 1967.96 L2948.06 1962.06 L2967.81 1962.06 L2967.81 1956.32 L2987.38 1956.32 L2987.38 1950.58 L3026.87 1950.58 L3026.87 1944.84 L3046.61 1944.84 L3046.61 1941.98 L3066.36 1941.98 L3066.36 1936.24 L3086.10 1936.24 L3086.10 1930.50 L3105.68 1930.50 L3105.68 1927.63 L3164.91 1927.63 L3164.91 1919.03 L3184.65 1919.03 L3184.65 1913.29 L3204.39 1913.29 L3204.39 1910.42 L3223.97 1910.42 L3223.97 1907.55 L3243.71 1907.55 L3243.71 1901.81 L3263.46 1901.81 L3263.46 1898.94 L3283.20 1898.94 L3283.20 1890.17 L3302.94 1890.17 L3302.94 1884.43 L3322.52 1884.43 L3322.52 1872.96 L3342.26 1872.96 L3342.26 1870.09 L3362.01 1870.09 L3362.01 1867.22 L3381.75 1867.22 L3381.75 1858.61 L3401.49 1858.61 L3401.49 1852.88 L3440.81 1852.88 L3440.81 1841.40 L3460.56 1841.40 L3460.56 1835.66 L3480.30 1835.66 L3480.30 1832.79 L3500.04 1832.79 L3500.04 1829.93 L3519.79 1829.93 L3519.79 1821.32 L3539.53 1821.32 L3539.53 1812.54 L3578.85 1812.54 L3578.85 1809.68 L3618.34 1809.68 L3618.34 1806.81 L3638.08 1806.81 L3638.08 1803.94 L3657.83 1803.94 L3657.83 1795.33 L3677.40 1795.33 L3677.40 1789.59 L3697.14 1789.59 L3697.14 1780.99 L3716.89 1780.99 L3716.89 1775.25 L3736.63 1775.25 L3736.63 1772.38 L3756.38 1772.38 L3756.38 1766.64 L3776.12 1766.64 L3776.12 1758.04 L3795.69 1758.04 L3795.69 1755.17 L3815.44 1755.17 L3815.44 1752.30 L3835.18 1752.30 L3835.18 1749.43 L3854.93 1749.43 L3854.93 1740.66 L3874.67 1740.66 L3874.67 1737.79 L3894.41 1737.79 L3894.41 1732.05 L3933.73 1732.05 L3933.73 1726.31 L3953.48 1726.31 L3953.48 1720.58 L3973.22 1720.58 L3973.22 1717.71 L4012.71 1717.71 L4012.71 1711.97 L4032.28 1711.97 L4032.28 1709.10 L4052.03 1709.10 L4052.03 1697.63 L4071.77 1697.63 L4071.77 1694.76 L4091.51 1694.76 L4091.51 1689.02 L4111.26 1689.02 L4111.26 1686.15 L4130.83 1686.15 L4130.83 1680.41 L4150.58 1680.41 L4150.58 1677.38 L4170.32 1677.38 L4170.32 1671.64 L4190.06 1671.64 L4190.06 1668.77 L4209.81 1668.77 L4209.81 1663.03 L4229.55 1663.03 L4229.55 1657.29 L4249.13 1657.29 L4249.13 1651.56 L4268.87 1651.56 L4268.87 1642.95 L4328.10 1642.95 L4328.10 1640.08 L4347.84 1640.08 L4347.84 1637.21 L4367.42 1637.21 L4367.42 1634.34 L4387.16 1634.34 L4387.16 1631.48 L4406.91 1631.48 L4406.91 1622.87 L4446.39 1622.87 L4446.39 1620.00 L4466.14 1620.00 L4466.14 1611.39 L4485.71 1611.39 L4485.71 1605.49 L4505.46 1605.49 L4505.46 1596.88 L4525.20 1596.88 L4525.20 1594.01 L4564.69 1594.01 L4564.69 1588.28 L4584.43 1588.28 L4584.43 1582.54 L4604.01 1582.54 L4604.01 1576.80 L4643.49 1576.80 L4643.49 1573.93 L4663.24 1573.93 L4663.24 1571.06 L4682.98 1571.06 L4682.98 1568.19 L4702.73 1568.19 L4702.73 1562.46 L4722.30 1562.46 L4722.30 1556.72 L4742.04 1556.72 L4742.04 1553.85 L4761.79 1553.85 L4761.79 1550.98 L4781.53 1550.98 L4781.53 1548.11 L4801.27 1548.11 L4801.27 1545.24 L4821.02 1545.24 L4821.02 1536.64 L4840.59 1536.64 L4840.59 1527.86 L4860.34 1527.86 L4860.34 1522.13 L4880.08 1522.13 L4880.08 1516.39 L4899.83 1516.39 L4899.83 1510.65 L4919.57 1510.65 L4919.57 1507.78 L4939.31 1507.78 L4939.31 1502.04 L4958.89 1502.04 L4958.89 1499.18 L4978.63 1499.18 L4978.63 1493.44 L4998.38 1493.44 L4998.38 1487.70 L5018.12 1487.70 L5018.12 1481.63 L5037.86 1481.63 L5037.86 1478.59 L5057.44 1478.59 L5057.44 1475.21 L5077.18 1475.21 L5077.18 1468.13 L5096.93 1468.13 L5096.93 1460.70 L5116.67 1460.70 L5116.67 1456.99 L5136.41 1456.99 L5136.41 1448.89 L5156.16 1448.89 L5156.16 1448.89 L5175.73 1448.89 L5175.73 1439.78 L5195.48 1439.78 L5195.48 1435.05 L5215.22 1435.05 L5215.22 1429.48 L5215.22 1429.48 L5215.22 1429.48" stroke-linejoin="round" style="fill:none;stroke:#FFD400;stroke-width:9.72"/>
	<path d=" M483.64 2695.44 L483.64 2695.44 L483.64 2695.44 L483.64 2695.44 L483.64 2695.44 L483.64 2695.44 L483.64 2695.44 L483.64 2695.44 L483.64 2695.44 L503.38 2695.44 L503.38 2685.49 L523.13 2685.49 L523.13 2665.41 L542.87 2665.41 L542.87 2635.54 L562.44 2635.54 L562.44 2615.63 L601.93 2615.63 L601.93 2605.67 L621.67 2605.67 L621.67 2585.76 L641.42 2585.76 L641.42 2545.76 L680.74 2545.76 L680.74 2515.89 L700.48 2515.89 L700.48 2495.98 L720.23 2495.98 L720.23 2465.94 L739.97 2465.94 L739.97 2446.03 L759.71 2446.03 L759.71 2426.12 L779.46 2426.12 L779.46 2376.17 L799.03 2376.17 L799.03 2356.26 L838.52 2356.26 L838.52 2326.39 L878.01 2326.39 L878.01 2316.43 L897.58 2316.43 L897.58 2306.31 L917.33 2306.31 L917.33 2296.35 L937.07 2296.35 L937.07 2276.44 L956.81 2276.44 L956.81 2266.48 L976.56 2266.48 L976.56 2236.61 L996.30 2236.61 L996.30 2216.53 L1015.88 2216.53 L1015.88 2196.62 L1055.36 2196.62 L1055.36 2186.66 L1075.11 2186.66 L1075.11 2166.75 L1114.59 2166.75 L1114.59 2136.88 L1134.17 2136.88 L1134.17 2126.76 L1153.91 2126.76 L1153.91 2116.80 L1193.40 2116.80 L1193.40 2096.89 L1232.89 2096.89 L1232.89 2067.02 L1272.21 2067.02 L1272.21 2046.94 L1291.95 2046.94 L1291.95 2017.07 L1311.69 2017.07 L1311.69 2007.11 L1331.44 2007.11 L1331.44 1987.20 L1370.76 1987.20 L1370.76 1977.24 L1390.50 1977.24 L1390.50 1957.16 L1410.24 1957.16 L1410.24 1927.29 L1449.73 1927.29 L1449.73 1887.47 L1469.48 1887.47 L1469.48 1867.39 L1489.05 1867.39 L1489.05 1847.48 L1508.79 1847.48 L1508.79 1827.56 L1528.54 1827.56 L1528.54 1817.61 L1548.28 1817.61 L1548.28 1797.69 L1607.34 1797.69 L1607.34 1787.74 L1646.83 1787.74 L1646.83 1767.66 L1666.58 1767.66 L1666.58 1727.83 L1686.32 1727.83 L1686.32 1707.92 L1725.64 1707.92 L1725.64 1687.84 L1784.87 1687.84 L1784.87 1677.88 L1804.61 1677.88 L1804.61 1657.97 L1863.68 1657.97 L1863.68 1638.06 L1922.91 1638.06 L1922.91 1618.14 L1942.48 1618.14 L1942.48 1588.11 L1962.23 1588.11 L1962.23 1578.15 L1981.97 1578.15 L1981.97 1568.19 L2021.46 1568.19 L2021.46 1558.24 L2041.20 1558.24 L2041.20 1548.28 L2060.78 1548.28 L2060.78 1538.33 L2080.52 1538.33 L2080.52 1528.37 L2100.26 1528.37 L2100.26 1508.29 L2159.49 1508.29 L2159.49 1498.33 L2179.07 1498.33 L2179.07 1488.38 L2218.56 1488.38 L2218.56 1468.46 L2258.04 1468.46 L2258.04 1458.51 L2317.11 1458.51 L2317.11 1438.59 L2336.85 1438.59 L2336.85 1418.51 L2356.59 1418.51 L2356.59 1398.60 L2376.34 1398.60 L2376.34 1388.64 L2435.40 1388.64 L2435.40 1378.69 L2455.14 1378.69 L2455.14 1368.73 L2514.21 1368.73 L2514.21 1358.78 L2553.69 1358.78 L2553.69 1348.82 L2573.44 1348.82 L2573.44 1328.74 L2632.50 1328.74 L2632.50 1288.91 L2691.73 1288.91 L2691.73 1269.00 L2770.54 1269.00 L2770.54 1259.04 L2790.28 1259.04 L2790.28 1238.96 L2810.03 1238.96 L2810.03 1219.05 L2849.51 1219.05 L2849.51 1209.09 L2869.09 1209.09 L2869.09 1189.18 L2908.58 1189.18 L2908.58 1179.22 L2928.32 1179.22 L2928.32 1169.27 L2948.06 1169.27 L2948.06 1139.23 L2987.38 1139.23 L2987.38 1119.32 L3007.13 1119.32 L3007.13 1099.41 L3105.68 1099.41 L3105.68 1089.45 L3164.91 1089.45 L3164.91 1069.37 L3204.39 1069.37 L3204.39 1059.41 L3223.97 1059.41 L3223.97 1039.50 L3263.46 1039.50 L3263.46 1029.54 L3302.94 1029.54 L3302.94 1019.59 L3381.75 1019.59 L3381.75 1009.63 L3421.24 1009.63 L3421.24 999.68 L3480.30 999.68 L3480.30 989.72 L3578.85 989.72 L3578.85 979.59 L3618.34 979.59 L3618.34 969.64 L3638.08 969.64 L3638.08 959.68 L3697.14 959.68 L3697.14 949.72 L3716.89 949.72 L3716.89 939.77 L3736.63 939.77 L3736.63 929.81 L3894.41 929.81 L3894.41 919.86 L3933.73 919.86 L3933.73 909.90 L4012.71 909.90 L4012.71 889.82 L4032.28 889.82 L4032.28 879.86 L4052.03 879.86 L4052.03 869.91 L4170.32 869.91 L4170.32 859.95 L4190.06 859.95 L4190.06 840.04 L4249.13 840.04 L4249.13 830.08 L4347.84 830.08 L4347.84 820.13 L4367.42 820.13 L4367.42 810.00 L4466.14 810.00 L4466.14 800.04 L4485.71 800.04 L4485.71 790.09 L4505.46 790.09 L4505.46 780.13 L4564.69 780.13 L4564.69 770.18 L4623.75 770.18 L4623.75 760.22 L4643.49 760.22 L4643.49 750.26 L4682.98 750.26 L4682.98 740.31 L4702.73 740.31 L4702.73 730.35 L4722.30 730.35 L4722.30 720.22 L4860.34 720.22 L4860.34 710.27 L4880.08 710.27 L4880.08 700.31 L4899.83 700.31 L4899.83 690.36 L4919.57 690.36 L4919.57 650.53 L4939.31 650.53 L4939.31 640.57 L4998.38 640.57 L4998.38 630.45 L5018.12 630.45 L5018.12 630.45 L5037.86 630.45 L5037.86 619.48 L5057.44 619.48 L5057.44 619.48 L5077.18 619.48 L5077.18 619.48 L5096.93 619.48 L5096.93 606.32 L5116.67 606.32 L5116.67 606.32 L5136.41 606.32 L5136.41 606.32 L5156.16 606.32 L5156.16 606.32 L5175.73 606.32 L5175.73 574.76 L5195.48 574.76 L5195.48 574.76 L5215.22 574.76 L5215.22 574.76 L5215.22 574.76 L5215.22 574.76" stroke-linejoin="round" style="fill:none;stroke:#4F2C99;stroke-width:9.72"/>
	<line x1="412.43" y1="2766.66" x2="412.43" y2="309.82" style="stroke:#000000;stroke-width:6.48"/>
	<line x1="412.43" y1="2695.28" x2="367.54" y2="2695.28" style="stroke:#000000;stroke-width:6.48"/>
	<text x="344.93" y="2734.71" style="font-family:'Helvetica';font-size:112.56px;fill:#000000" text-anchor="end">0</text>
	<line x1="412.43" y1="2116.80" x2="367.54" y2="2116.80" style="stroke:#000000;stroke-width:6.48"/>
	<text x="344.93" y="2156.24" style="font-family:'Helvetica';font-size:112.56px;fill:#000000" text-anchor="end">20</text>
	<line x1="412.43" y1="1538.16" x2="367.54" y2="1538.16" style="stroke:#000000;stroke-width:6.48"/>
	<text x="344.93" y="1577.59" style="font-family:'Helvetica';font-size:112.56px;fill:#000000" text-anchor="end">40</text>
	<line x1="412.43" y1="959.68" x2="367.54" y2="959.68" style="stroke:#000000;stroke-width:6.48"/>
	<text x="344.93" y="999.12" style="font-family:'Helvetica';font-size:112.56px;fill:#000000" text-anchor="end">60</text>
	<line x1="412.43" y1="381.04" x2="367.54" y2="381.04" style="stroke:#000000;stroke-width:6.48"/>
	<text x="344.93" y="420.47" style="font-family:'Helvetica';font-size:112.56px;fill:#000000" text-anchor="end">80</text>
	<line x1="412.43" y1="2766.66" x2="5286.60" y2="2766.66" style="stroke:#000000;stroke-width:6.48"/>
	<line x1="483.81" y1="2766.66" x2="483.81" y2="2811.54" style="stroke:#000000;stroke-width:6.48"/>
	<text x="483.81" y="2912.86" style="font-family:'Helvetica';font-size:112.56px;fill:#000000" text-anchor="middle">0</text>
	<line x1="1666.58" y1="2766.66" x2="1666.58" y2="2811.54" style="stroke:#000000;stroke-width:6.48"/>
	<text x="1666.58" y="2912.86" style="font-family:'Helvetica';font-size:112.56px;fill:#000000" text-anchor="middle">5</text>
	<line x1="2849.51" y1="2766.66" x2="2849.51" y2="2811.54" style="stroke:#000000;stroke-width:6.48"/>
	<text x="2849.51" y="2912.86" style="font-family:'Helvetica';font-size:112.56px;fill:#000000" text-anchor="middle">10</text>
	<line x1="4032.45" y1="2766.66" x2="4032.45" y2="2811.54" style="stroke:#000000;stroke-width:6.48"/>
	<text x="4032.45" y="2912.86" style="font-family:'Helvetica';font-size:112.56px;fill:#000000" text-anchor="middle">15</text>
	<line x1="5215.39" y1="2766.66" x2="5215.39" y2="2811.54" style="stroke:#000000;stroke-width:6.48"/>
	<text x="5215.39" y="2912.86" style="font-family:'Helvetica';font-size:112.56px;fill:#000000" text-anchor="middle">20</text>
	<text x="2849.51" y="3070.31" style="font-family:'Helvetica';font-size:112.56px;fill:#000000" text-anchor="middle">Analysis time</text>
	<rect x="451.41" y="348.64" width="984.99" height="839.70" style="fill:#FFFFFF"/>
	<rect x="454.65" y="351.88" width="978.51" height="833.22" style="fill:none;stroke:#FFFFFF;stroke-width:6.48"/>
	<line x1="500.01" y1="453.43" x2="759.21" y2="453.43" style="stroke:#4F2C99;stroke-width:9.72"/>
	<line x1="500.01" y1="611.04" x2="759.21" y2="611.04" style="stroke:#FFD400;stroke-width:9.72"/>
	<line x1="500.01" y1="768.49" x2="759.21" y2="768.49" style="stroke:#00BF7F;stroke-width:9.72"/>
	<line x1="500.01" y1="925.93" x2="759.21" y2="925.93" style="stroke:#D41159;stroke-width:9.72"/>
	<line x1="500.01" y1="1083.54" x2="759.21" y2="1083.54" style="stroke:#1A85FF;stroke-width:9.72"/>
	<text x="826.71" y="492.87" style="font-family:'Helvetica';font-size:112.56px;fill:#000000">Poor</text>
	<text x="826.71" y="650.48" style="font-family:'Helvetica';font-size:112.56px;fill:#000000">Fair</text>
	<text x="826.71" y="807.92" style="font-family:'Helvetica';font-size:112.56px;fill:#000000">Good</text>
	<text x="826.71" y="965.37" style="font-family:'Helvetica';font-size:112.56px;fill:#000000">Very Good</text>
	<text x="826.71" y="1122.98" style="font-family:'Helvetica';font-size:112.56px;fill:#000000">Excellent</text>
	<text x="2849.51" y="243.10" style="font-family:'Helvetica';font-size:157.44px;fill:#000000" text-anchor="middle">Self-Reported Health and Mortality</text>
</svg>
